<?xml version="1.0" encoding="utf-8" standalone="no"?>
<!DOCTYPE svg PUBLIC "-//W3C//DTD SVG 1.1//EN"
  "http://www.w3.org/Graphics/SVG/1.1/DTD/svg11.dtd">
<svg xmlns:xlink="http://www.w3.org/1999/xlink" width="244.680312pt" height="200.325846pt" viewBox="0 0 244.680312 200.325846" xmlns="http://www.w3.org/2000/svg" version="1.1">
 <metadata>
  <rdf:RDF xmlns:dc="http://purl.org/dc/elements/1.1/" xmlns:cc="http://creativecommons.org/ns#" xmlns:rdf="http://www.w3.org/1999/02/22-rdf-syntax-ns#">
   <cc:Work>
    <dc:type rdf:resource="http://purl.org/dc/dcmitype/StillImage"/>
    <dc:date>2026-06-30T17:12:54.165982</dc:date>
    <dc:format>image/svg+xml</dc:format>
    <dc:creator>
     <cc:Agent>
      <dc:title>Matplotlib v3.11.0, https://matplotlib.org/</dc:title>
     </cc:Agent>
    </dc:creator>
   </cc:Work>
  </rdf:RDF>
 </metadata>
 <defs>
  <style type="text/css">*{stroke-linejoin: round; stroke-linecap: butt}</style>
 </defs>
 <g id="figure_1">
  <g id="patch_1">
   <path d="M 0 200.325846 
L 244.680313 200.325846 
L 244.680313 0 
L 0 0 
z
" style="fill: #ffffff"/>
  </g>
  <g id="axes_1">
   <g id="patch_2">
    <path d="M 42.435547 147.334594 
L 232.155547 147.334594 
L 232.155547 14.278594 
L 42.435547 14.278594 
z
" style="fill: #ffffff"/>
   </g>
   <g id="patch_3">
    <path d="M 51.059183 147.334594 
L 76.251829 147.334594 
L 76.251829 78.29375 
L 51.059183 78.29375 
z
" clip-path="url(#p4c549d2833)" style="fill: #9ecae1"/>
   </g>
   <g id="patch_4">
    <path d="M 147.953974 147.334594 
L 173.146619 147.334594 
L 173.146619 113.724615 
L 147.953974 113.724615 
z
" clip-path="url(#p4c549d2833)" style="fill: #9ecae1"/>
   </g>
   <g id="patch_5">
    <path d="M 76.251829 147.334594 
L 101.444474 147.334594 
L 101.444474 99.821572 
L 76.251829 99.821572 
z
" clip-path="url(#p4c549d2833)" style="fill: #4292c6"/>
   </g>
   <g id="patch_6">
    <path d="M 173.146619 147.334594 
L 198.339265 147.334594 
L 198.339265 125.664528 
L 173.146619 125.664528 
z
" clip-path="url(#p4c549d2833)" style="fill: #4292c6"/>
   </g>
   <g id="patch_7">
    <path d="M 101.444474 147.334594 
L 126.63712 147.334594 
L 126.63712 20.614594 
L 101.444474 20.614594 
z
" clip-path="url(#p4c549d2833)" style="fill: #084594"/>
   </g>
   <g id="patch_8">
    <path d="M 198.339265 147.334594 
L 223.531911 147.334594 
L 223.531911 89.489272 
L 198.339265 89.489272 
z
" clip-path="url(#p4c549d2833)" style="fill: #084594"/>
   </g>
   <g id="matplotlib.axis_1">
    <g id="xtick_1">
     <g id="line2d_1">
      <defs>
       <path id="mfb0c92fc86" d="M 0 0 
L 0 3.5 
" style="stroke: #000000; stroke-width: 0.8"/>
      </defs>
      <g>
       <use xlink:href="#mfb0c92fc86" x="88.848152" y="147.334594" style="stroke: #000000; stroke-width: 0.8"/>
      </g>
     </g>
     <g id="text_1">
      <!-- Measles -->
      <g transform="translate(73.285652 160.784154) scale(0.075 -0.075)">
       <defs>
        <path id="DejaVuSerif-30" d="M 353 0 
L 353 331 
L 947 331 
L 947 4331 
L 319 4331 
L 319 4666 
L 1678 4666 
L 3316 1344 
L 4953 4666 
L 6228 4666 
L 6228 4331 
L 5606 4331 
L 5606 331 
L 6203 331 
L 6203 0 
L 4378 0 
L 4378 331 
L 4972 331 
L 4972 3938 
L 3372 684 
L 2931 684 
L 1331 3938 
L 1331 331 
L 1925 331 
L 1925 0 
L 353 0 
z
" transform="scale(0.015625)"/>
        <path id="DejaVuSerif-48" d="M 3469 1600 
L 991 1600 
L 991 1575 
Q 991 903 1244 561 
Q 1497 219 1991 219 
Q 2369 219 2611 417 
Q 2853 616 2950 1006 
L 3413 1006 
Q 3275 459 2904 184 
Q 2534 -91 1931 -91 
Q 1203 -91 761 389 
Q 319 869 319 1663 
Q 319 2450 753 2931 
Q 1188 3413 1894 3413 
Q 2647 3413 3050 2948 
Q 3453 2484 3469 1600 
z
M 2791 1931 
Q 2772 2513 2545 2808 
Q 2319 3103 1894 3103 
Q 1497 3103 1269 2806 
Q 1041 2509 991 1931 
L 2791 1931 
z
" transform="scale(0.015625)"/>
        <path id="DejaVuSerif-44" d="M 2547 1044 
L 2547 1747 
L 1806 1747 
Q 1378 1747 1168 1562 
Q 959 1378 959 997 
Q 959 650 1171 447 
Q 1384 244 1747 244 
Q 2106 244 2326 466 
Q 2547 688 2547 1044 
z
M 3122 2075 
L 3122 331 
L 3634 331 
L 3634 0 
L 2547 0 
L 2547 359 
Q 2356 128 2106 18 
Q 1856 -91 1522 -91 
Q 969 -91 644 203 
Q 319 497 319 997 
Q 319 1513 691 1797 
Q 1063 2081 1741 2081 
L 2547 2081 
L 2547 2309 
Q 2547 2688 2317 2895 
Q 2088 3103 1672 3103 
Q 1328 3103 1125 2947 
Q 922 2791 872 2484 
L 575 2484 
L 575 3156 
Q 875 3284 1158 3348 
Q 1441 3413 1709 3413 
Q 2400 3413 2761 3070 
Q 3122 2728 3122 2075 
z
" transform="scale(0.015625)"/>
        <path id="DejaVuSerif-56" d="M 359 184 
L 359 959 
L 691 959 
Q 703 588 923 403 
Q 1144 219 1575 219 
Q 1963 219 2166 364 
Q 2369 509 2369 788 
Q 2369 1006 2220 1140 
Q 2072 1275 1594 1428 
L 1178 1569 
Q 750 1706 558 1912 
Q 366 2119 366 2438 
Q 366 2894 700 3153 
Q 1034 3413 1625 3413 
Q 1888 3413 2178 3344 
Q 2469 3275 2778 3144 
L 2778 2419 
L 2447 2419 
Q 2434 2741 2221 2922 
Q 2009 3103 1644 3103 
Q 1281 3103 1095 2975 
Q 909 2847 909 2591 
Q 909 2381 1050 2254 
Q 1191 2128 1613 1997 
L 2069 1856 
Q 2541 1709 2748 1489 
Q 2956 1269 2956 922 
Q 2956 450 2595 179 
Q 2234 -91 1600 -91 
Q 1278 -91 972 -22 
Q 666 47 359 184 
z
" transform="scale(0.015625)"/>
        <path id="DejaVuSerif-4f" d="M 1313 331 
L 1856 331 
L 1856 0 
L 184 0 
L 184 331 
L 738 331 
L 738 4531 
L 184 4531 
L 184 4863 
L 1313 4863 
L 1313 331 
z
" transform="scale(0.015625)"/>
       </defs>
       <use xlink:href="#DejaVuSerif-30"/>
       <use xlink:href="#DejaVuSerif-48" transform="translate(102.390625 0)"/>
       <use xlink:href="#DejaVuSerif-44" transform="translate(161.578125 0)"/>
       <use xlink:href="#DejaVuSerif-56" transform="translate(221.203125 0)"/>
       <use xlink:href="#DejaVuSerif-4f" transform="translate(272.515625 0)"/>
       <use xlink:href="#DejaVuSerif-48" transform="translate(304.5 0)"/>
       <use xlink:href="#DejaVuSerif-56" transform="translate(363.6875 0)"/>
      </g>
      <!-- (SIR) -->
      <g transform="translate(79.048347 169.786205) scale(0.075 -0.075)">
       <defs>
        <path id="DejaVuSerif-b" d="M 2041 -997 
Q 1281 -656 893 83 
Q 506 822 506 1931 
Q 506 3044 893 3783 
Q 1281 4522 2041 4863 
L 2041 4556 
Q 1559 4225 1350 3623 
Q 1141 3022 1141 1931 
Q 1141 844 1350 242 
Q 1559 -359 2041 -691 
L 2041 -997 
z
" transform="scale(0.015625)"/>
        <path id="DejaVuSerif-36" d="M 594 225 
L 594 1288 
L 953 1284 
Q 969 753 1261 498 
Q 1553 244 2150 244 
Q 2706 244 2998 464 
Q 3291 684 3291 1106 
Q 3291 1444 3114 1625 
Q 2938 1806 2369 1978 
L 1753 2163 
Q 1084 2366 811 2669 
Q 538 2972 538 3500 
Q 538 4094 959 4422 
Q 1381 4750 2144 4750 
Q 2469 4750 2856 4679 
Q 3244 4609 3681 4475 
L 3681 3481 
L 3328 3481 
Q 3275 3975 2998 4195 
Q 2722 4416 2156 4416 
Q 1663 4416 1405 4214 
Q 1147 4013 1147 3628 
Q 1147 3294 1340 3103 
Q 1534 2913 2163 2725 
L 2741 2553 
Q 3375 2363 3645 2067 
Q 3916 1772 3916 1275 
Q 3916 597 3481 253 
Q 3047 -91 2188 -91 
Q 1803 -91 1404 -12 
Q 1006 66 594 225 
z
" transform="scale(0.015625)"/>
        <path id="DejaVuSerif-2c" d="M 1581 331 
L 2175 331 
L 2175 0 
L 353 0 
L 353 331 
L 947 331 
L 947 4331 
L 353 4331 
L 353 4666 
L 2175 4666 
L 2175 4331 
L 1581 4331 
L 1581 331 
z
" transform="scale(0.015625)"/>
        <path id="DejaVuSerif-35" d="M 3066 2316 
Q 3284 2256 3442 2114 
Q 3600 1972 3725 1716 
L 4403 331 
L 4972 331 
L 4972 0 
L 3872 0 
L 3144 1484 
Q 2934 1916 2759 2042 
Q 2584 2169 2278 2169 
L 1581 2169 
L 1581 331 
L 2241 331 
L 2241 0 
L 353 0 
L 353 331 
L 947 331 
L 947 4331 
L 353 4331 
L 353 4666 
L 2719 4666 
Q 3400 4666 3770 4341 
Q 4141 4016 4141 3419 
Q 4141 2938 3870 2661 
Q 3600 2384 3066 2316 
z
M 1581 2503 
L 2503 2503 
Q 2975 2503 3200 2726 
Q 3425 2950 3425 3419 
Q 3425 3888 3200 4109 
Q 2975 4331 2503 4331 
L 1581 4331 
L 1581 2503 
z
" transform="scale(0.015625)"/>
        <path id="DejaVuSerif-c" d="M 453 -997 
L 453 -691 
Q 934 -359 1145 242 
Q 1356 844 1356 1931 
Q 1356 3022 1145 3623 
Q 934 4225 453 4556 
L 453 4863 
Q 1216 4522 1603 3783 
Q 1991 3044 1991 1931 
Q 1991 822 1603 83 
Q 1216 -656 453 -997 
z
" transform="scale(0.015625)"/>
       </defs>
       <use xlink:href="#DejaVuSerif-b"/>
       <use xlink:href="#DejaVuSerif-36" transform="translate(39.015625 0)"/>
       <use xlink:href="#DejaVuSerif-2c" transform="translate(107.515625 0)"/>
       <use xlink:href="#DejaVuSerif-35" transform="translate(147.015625 0)"/>
       <use xlink:href="#DejaVuSerif-c" transform="translate(222.3125 0)"/>
      </g>
     </g>
    </g>
    <g id="xtick_2">
     <g id="line2d_2">
      <g>
       <use xlink:href="#mfb0c92fc86" x="185.742942" y="147.334594" style="stroke: #000000; stroke-width: 0.8"/>
      </g>
     </g>
     <g id="text_2">
      <!-- Gonorrhea -->
      <g transform="translate(165.361106 160.784154) scale(0.075 -0.075)">
       <defs>
        <path id="DejaVuSerif-2a" d="M 4097 3272 
Q 3988 3856 3641 4136 
Q 3294 4416 2675 4416 
Q 1869 4416 1472 3897 
Q 1075 3378 1075 2328 
Q 1075 1300 1484 772 
Q 1894 244 2688 244 
Q 3041 244 3362 331 
Q 3684 419 3975 594 
L 3975 1797 
L 3097 1797 
L 3097 2131 
L 4609 2131 
L 4609 391 
Q 4194 150 3714 29 
Q 3234 -91 2688 -91 
Q 1631 -91 995 570 
Q 359 1231 359 2328 
Q 359 3434 996 4092 
Q 1634 4750 2713 4750 
Q 3113 4750 3539 4658 
Q 3966 4566 4447 4378 
L 4447 3272 
L 4097 3272 
z
" transform="scale(0.015625)"/>
        <path id="DejaVuSerif-52" d="M 1925 219 
Q 2388 219 2623 584 
Q 2859 950 2859 1663 
Q 2859 2375 2623 2739 
Q 2388 3103 1925 3103 
Q 1463 3103 1227 2739 
Q 991 2375 991 1663 
Q 991 950 1228 584 
Q 1466 219 1925 219 
z
M 1925 -91 
Q 1200 -91 759 389 
Q 319 869 319 1663 
Q 319 2456 758 2934 
Q 1197 3413 1925 3413 
Q 2653 3413 3092 2934 
Q 3531 2456 3531 1663 
Q 3531 869 3092 389 
Q 2653 -91 1925 -91 
z
" transform="scale(0.015625)"/>
        <path id="DejaVuSerif-51" d="M 263 0 
L 263 331 
L 781 331 
L 781 2988 
L 231 2988 
L 231 3322 
L 1356 3322 
L 1356 2731 
Q 1516 3069 1770 3241 
Q 2025 3413 2363 3413 
Q 2913 3413 3172 3097 
Q 3431 2781 3431 2113 
L 3431 331 
L 3944 331 
L 3944 0 
L 2356 0 
L 2356 331 
L 2853 331 
L 2853 1931 
Q 2853 2541 2703 2767 
Q 2553 2994 2175 2994 
Q 1775 2994 1565 2701 
Q 1356 2409 1356 1850 
L 1356 331 
L 1856 331 
L 1856 0 
L 263 0 
z
" transform="scale(0.015625)"/>
        <path id="DejaVuSerif-55" d="M 3059 3328 
L 3059 2497 
L 2728 2497 
Q 2713 2744 2591 2866 
Q 2469 2988 2234 2988 
Q 1809 2988 1582 2694 
Q 1356 2400 1356 1850 
L 1356 331 
L 2022 331 
L 2022 0 
L 263 0 
L 263 331 
L 781 331 
L 781 2994 
L 231 2994 
L 231 3322 
L 1356 3322 
L 1356 2731 
Q 1525 3078 1790 3245 
Q 2056 3413 2438 3413 
Q 2578 3413 2733 3391 
Q 2888 3369 3059 3328 
z
" transform="scale(0.015625)"/>
        <path id="DejaVuSerif-4b" d="M 263 0 
L 263 331 
L 781 331 
L 781 4531 
L 231 4531 
L 231 4863 
L 1356 4863 
L 1356 2731 
Q 1516 3069 1770 3241 
Q 2025 3413 2363 3413 
Q 2913 3413 3172 3097 
Q 3431 2781 3431 2113 
L 3431 331 
L 3944 331 
L 3944 0 
L 2356 0 
L 2356 331 
L 2853 331 
L 2853 1931 
Q 2853 2541 2704 2764 
Q 2556 2988 2175 2988 
Q 1775 2988 1565 2697 
Q 1356 2406 1356 1850 
L 1356 331 
L 1856 331 
L 1856 0 
L 263 0 
z
" transform="scale(0.015625)"/>
       </defs>
       <use xlink:href="#DejaVuSerif-2a"/>
       <use xlink:href="#DejaVuSerif-52" transform="translate(79.890625 0)"/>
       <use xlink:href="#DejaVuSerif-51" transform="translate(140.09375 0)"/>
       <use xlink:href="#DejaVuSerif-52" transform="translate(204.5 0)"/>
       <use xlink:href="#DejaVuSerif-55" transform="translate(264.703125 0)"/>
       <use xlink:href="#DejaVuSerif-55" transform="translate(312.5 0)"/>
       <use xlink:href="#DejaVuSerif-4b" transform="translate(360.296875 0)"/>
       <use xlink:href="#DejaVuSerif-48" transform="translate(424.703125 0)"/>
       <use xlink:href="#DejaVuSerif-44" transform="translate(483.890625 0)"/>
      </g>
      <!-- (SIS) -->
      <g transform="translate(176.19802 169.786205) scale(0.075 -0.075)">
       <use xlink:href="#DejaVuSerif-b"/>
       <use xlink:href="#DejaVuSerif-36" transform="translate(39.015625 0)"/>
       <use xlink:href="#DejaVuSerif-2c" transform="translate(107.515625 0)"/>
       <use xlink:href="#DejaVuSerif-36" transform="translate(147.015625 0)"/>
       <use xlink:href="#DejaVuSerif-c" transform="translate(215.515625 0)"/>
      </g>
     </g>
    </g>
   </g>
   <g id="matplotlib.axis_2">
    <g id="ytick_1">
     <g id="line2d_3">
      <defs>
       <path id="mf27fd6fd46" d="M 0 0 
L -3.5 0 
" style="stroke: #000000; stroke-width: 0.8"/>
      </defs>
      <g>
       <use xlink:href="#mf27fd6fd46" x="42.435547" y="147.334594" style="stroke: #000000; stroke-width: 0.8"/>
      </g>
     </g>
     <g id="text_3">
      <!-- 0k -->
      <g transform="translate(26.119141 150.184008) scale(0.075 -0.075)">
       <defs>
        <path id="DejaVuSerif-13" d="M 2034 219 
Q 2513 219 2750 744 
Q 2988 1269 2988 2328 
Q 2988 3391 2750 3916 
Q 2513 4441 2034 4441 
Q 1556 4441 1318 3916 
Q 1081 3391 1081 2328 
Q 1081 1269 1318 744 
Q 1556 219 2034 219 
z
M 2034 -91 
Q 1275 -91 848 546 
Q 422 1184 422 2328 
Q 422 3475 848 4112 
Q 1275 4750 2034 4750 
Q 2797 4750 3222 4112 
Q 3647 3475 3647 2328 
Q 3647 1184 3222 546 
Q 2797 -91 2034 -91 
z
" transform="scale(0.015625)"/>
        <path id="DejaVuSerif-4e" d="M 1831 0 
L 219 0 
L 219 331 
L 738 331 
L 738 4531 
L 184 4531 
L 184 4863 
L 1313 4863 
L 1313 1697 
L 2713 2988 
L 2234 2988 
L 2234 3322 
L 3738 3322 
L 3738 2988 
L 3169 2988 
L 2181 2075 
L 3444 331 
L 3922 331 
L 3922 0 
L 2284 0 
L 2284 331 
L 2759 331 
L 1766 1697 
L 1313 1275 
L 1313 331 
L 1831 331 
L 1831 0 
z
" transform="scale(0.015625)"/>
       </defs>
       <use xlink:href="#DejaVuSerif-13"/>
       <use xlink:href="#DejaVuSerif-4e" transform="translate(63.625 0)"/>
      </g>
     </g>
    </g>
    <g id="ytick_2">
     <g id="line2d_4">
      <g>
       <use xlink:href="#mf27fd6fd46" x="42.435547" y="117.599828" style="stroke: #000000; stroke-width: 0.8"/>
      </g>
     </g>
     <g id="text_4">
      <!-- 50M -->
      <g transform="translate(18.2125 120.448949) scale(0.075 -0.075)">
       <defs>
        <path id="DejaVuSerif-18" d="M 3219 4666 
L 3219 4153 
L 1081 4153 
L 1081 2816 
Q 1244 2928 1461 2984 
Q 1678 3041 1947 3041 
Q 2703 3041 3140 2622 
Q 3578 2203 3578 1478 
Q 3578 738 3136 323 
Q 2694 -91 1894 -91 
Q 1572 -91 1234 -12 
Q 897 66 544 225 
L 544 1131 
L 897 1131 
Q 925 688 1179 453 
Q 1434 219 1894 219 
Q 2388 219 2653 544 
Q 2919 869 2919 1478 
Q 2919 2084 2655 2407 
Q 2391 2731 1894 2731 
Q 1613 2731 1398 2631 
Q 1184 2531 1019 2322 
L 750 2322 
L 750 4666 
L 3219 4666 
z
" transform="scale(0.015625)"/>
       </defs>
       <use xlink:href="#DejaVuSerif-18"/>
       <use xlink:href="#DejaVuSerif-13" transform="translate(63.625 0)"/>
       <use xlink:href="#DejaVuSerif-30" transform="translate(127.25 0)"/>
      </g>
     </g>
    </g>
    <g id="ytick_3">
     <g id="line2d_5">
      <g>
       <use xlink:href="#mf27fd6fd46" x="42.435547" y="87.865063" style="stroke: #000000; stroke-width: 0.8"/>
      </g>
     </g>
     <g id="text_5">
      <!-- 100M -->
      <g transform="translate(13.440625 90.714184) scale(0.075 -0.075)">
       <defs>
        <path id="DejaVuSerif-14" d="M 909 0 
L 909 331 
L 1722 331 
L 1722 4213 
L 781 3603 
L 781 4013 
L 1919 4750 
L 2350 4750 
L 2350 331 
L 3163 331 
L 3163 0 
L 909 0 
z
" transform="scale(0.015625)"/>
       </defs>
       <use xlink:href="#DejaVuSerif-14"/>
       <use xlink:href="#DejaVuSerif-13" transform="translate(63.625 0)"/>
       <use xlink:href="#DejaVuSerif-13" transform="translate(127.25 0)"/>
       <use xlink:href="#DejaVuSerif-30" transform="translate(190.875 0)"/>
      </g>
     </g>
    </g>
    <g id="ytick_4">
     <g id="line2d_6">
      <g>
       <use xlink:href="#mf27fd6fd46" x="42.435547" y="58.130297" style="stroke: #000000; stroke-width: 0.8"/>
      </g>
     </g>
     <g id="text_6">
      <!-- 150M -->
      <g transform="translate(13.440625 60.979418) scale(0.075 -0.075)">
       <use xlink:href="#DejaVuSerif-14"/>
       <use xlink:href="#DejaVuSerif-18" transform="translate(63.625 0)"/>
       <use xlink:href="#DejaVuSerif-13" transform="translate(127.25 0)"/>
       <use xlink:href="#DejaVuSerif-30" transform="translate(190.875 0)"/>
      </g>
     </g>
    </g>
    <g id="ytick_5">
     <g id="line2d_7">
      <g>
       <use xlink:href="#mf27fd6fd46" x="42.435547" y="28.395531" style="stroke: #000000; stroke-width: 0.8"/>
      </g>
     </g>
     <g id="text_7">
      <!-- 200M -->
      <g transform="translate(13.440625 31.244652) scale(0.075 -0.075)">
       <defs>
        <path id="DejaVuSerif-15" d="M 819 3553 
L 469 3553 
L 469 4384 
Q 803 4563 1142 4656 
Q 1481 4750 1806 4750 
Q 2534 4750 2956 4397 
Q 3378 4044 3378 3438 
Q 3378 2753 2422 1800 
Q 2347 1728 2309 1691 
L 1131 513 
L 3078 513 
L 3078 1088 
L 3444 1088 
L 3444 0 
L 434 0 
L 434 341 
L 1850 1753 
Q 2319 2222 2519 2614 
Q 2719 3006 2719 3438 
Q 2719 3909 2473 4175 
Q 2228 4441 1797 4441 
Q 1350 4441 1106 4219 
Q 863 3997 819 3553 
z
" transform="scale(0.015625)"/>
       </defs>
       <use xlink:href="#DejaVuSerif-15"/>
       <use xlink:href="#DejaVuSerif-13" transform="translate(63.625 0)"/>
       <use xlink:href="#DejaVuSerif-13" transform="translate(127.25 0)"/>
       <use xlink:href="#DejaVuSerif-30" transform="translate(190.875 0)"/>
      </g>
     </g>
    </g>
    <g id="text_8">
     <!-- peak active infections -->
     <g transform="translate(7.51875 125.092844) rotate(-90) scale(0.08 -0.08)">
      <defs>
       <path id="DejaVuSerif-53" d="M 1313 1825 
L 1313 1497 
Q 1313 897 1542 583 
Q 1772 269 2209 269 
Q 2650 269 2876 622 
Q 3103 975 3103 1663 
Q 3103 2353 2876 2703 
Q 2650 3053 2209 3053 
Q 1772 3053 1542 2737 
Q 1313 2422 1313 1825 
z
M 738 2988 
L 184 2988 
L 184 3322 
L 1313 3322 
L 1313 2803 
Q 1481 3116 1742 3264 
Q 2003 3413 2388 3413 
Q 3000 3413 3387 2928 
Q 3775 2444 3775 1663 
Q 3775 881 3387 395 
Q 3000 -91 2388 -91 
Q 2003 -91 1742 57 
Q 1481 206 1313 519 
L 1313 -997 
L 1856 -997 
L 1856 -1331 
L 184 -1331 
L 184 -997 
L 738 -997 
L 738 2988 
z
" transform="scale(0.015625)"/>
       <path id="DejaVuSerif-3" transform="scale(0.015625)"/>
       <path id="DejaVuSerif-46" d="M 3291 997 
Q 3169 466 2822 187 
Q 2475 -91 1925 -91 
Q 1200 -91 759 389 
Q 319 869 319 1663 
Q 319 2459 759 2936 
Q 1200 3413 1925 3413 
Q 2241 3413 2553 3339 
Q 2866 3266 3181 3116 
L 3181 2266 
L 2847 2266 
Q 2781 2703 2561 2903 
Q 2341 3103 1931 3103 
Q 1466 3103 1228 2742 
Q 991 2381 991 1663 
Q 991 944 1227 581 
Q 1463 219 1931 219 
Q 2303 219 2525 412 
Q 2747 606 2828 997 
L 3291 997 
z
" transform="scale(0.015625)"/>
       <path id="DejaVuSerif-57" d="M 691 2988 
L 184 2988 
L 184 3322 
L 691 3322 
L 691 4353 
L 1269 4353 
L 1269 3322 
L 2350 3322 
L 2350 2988 
L 1269 2988 
L 1269 878 
Q 1269 456 1350 337 
Q 1431 219 1650 219 
Q 1875 219 1978 351 
Q 2081 484 2088 781 
L 2522 781 
Q 2497 328 2275 118 
Q 2053 -91 1600 -91 
Q 1103 -91 897 129 
Q 691 350 691 878 
L 691 2988 
z
" transform="scale(0.015625)"/>
       <path id="DejaVuSerif-4c" d="M 622 4353 
Q 622 4497 726 4603 
Q 831 4709 978 4709 
Q 1122 4709 1226 4603 
Q 1331 4497 1331 4353 
Q 1331 4206 1228 4103 
Q 1125 4000 978 4000 
Q 831 4000 726 4103 
Q 622 4206 622 4353 
z
M 1356 331 
L 1900 331 
L 1900 0 
L 231 0 
L 231 331 
L 781 331 
L 781 2988 
L 231 2988 
L 231 3322 
L 1356 3322 
L 1356 331 
z
" transform="scale(0.015625)"/>
       <path id="DejaVuSerif-59" d="M 1581 0 
L 359 2988 
L -19 2988 
L -19 3322 
L 1509 3322 
L 1509 2988 
L 978 2988 
L 1913 703 
L 2847 2988 
L 2350 2988 
L 2350 3322 
L 3597 3322 
L 3597 2988 
L 3225 2988 
L 2003 0 
L 1581 0 
z
" transform="scale(0.015625)"/>
       <path id="DejaVuSerif-49" d="M 2753 4078 
L 2450 4078 
Q 2447 4313 2317 4434 
Q 2188 4556 1941 4556 
Q 1619 4556 1487 4379 
Q 1356 4203 1356 3750 
L 1356 3322 
L 2284 3322 
L 2284 2988 
L 1356 2988 
L 1356 331 
L 2094 331 
L 2094 0 
L 231 0 
L 231 331 
L 781 331 
L 781 2988 
L 231 2988 
L 231 3322 
L 781 3322 
L 781 3738 
Q 781 4294 1070 4578 
Q 1359 4863 1919 4863 
Q 2128 4863 2337 4825 
Q 2547 4788 2753 4709 
L 2753 4078 
z
" transform="scale(0.015625)"/>
      </defs>
      <use xlink:href="#DejaVuSerif-53"/>
      <use xlink:href="#DejaVuSerif-48" transform="translate(64.015625 0)"/>
      <use xlink:href="#DejaVuSerif-44" transform="translate(123.203125 0)"/>
      <use xlink:href="#DejaVuSerif-4e" transform="translate(182.828125 0)"/>
      <use xlink:href="#DejaVuSerif-3" transform="translate(243.421875 0)"/>
      <use xlink:href="#DejaVuSerif-44" transform="translate(275.203125 0)"/>
      <use xlink:href="#DejaVuSerif-46" transform="translate(334.828125 0)"/>
      <use xlink:href="#DejaVuSerif-57" transform="translate(390.828125 0)"/>
      <use xlink:href="#DejaVuSerif-4c" transform="translate(431.015625 0)"/>
      <use xlink:href="#DejaVuSerif-59" transform="translate(463 0)"/>
      <use xlink:href="#DejaVuSerif-48" transform="translate(519.5 0)"/>
      <use xlink:href="#DejaVuSerif-3" transform="translate(578.6875 0)"/>
      <use xlink:href="#DejaVuSerif-4c" transform="translate(610.46875 0)"/>
      <use xlink:href="#DejaVuSerif-51" transform="translate(642.453125 0)"/>
      <use xlink:href="#DejaVuSerif-49" transform="translate(706.859375 0)"/>
      <use xlink:href="#DejaVuSerif-48" transform="translate(743.875 0)"/>
      <use xlink:href="#DejaVuSerif-46" transform="translate(803.0625 0)"/>
      <use xlink:href="#DejaVuSerif-57" transform="translate(859.0625 0)"/>
      <use xlink:href="#DejaVuSerif-4c" transform="translate(899.25 0)"/>
      <use xlink:href="#DejaVuSerif-52" transform="translate(931.234375 0)"/>
      <use xlink:href="#DejaVuSerif-51" transform="translate(991.4375 0)"/>
      <use xlink:href="#DejaVuSerif-56" transform="translate(1055.84375 0)"/>
     </g>
    </g>
   </g>
   <g id="patch_9">
    <path d="M 42.435547 147.334594 
L 42.435547 14.278594 
" style="fill: none; stroke: #000000; stroke-width: 0.8; stroke-linejoin: miter; stroke-linecap: square"/>
   </g>
   <g id="patch_10">
    <path d="M 42.435547 147.334594 
L 232.155547 147.334594 
" style="fill: none; stroke: #000000; stroke-width: 0.8; stroke-linejoin: miter; stroke-linecap: square"/>
   </g>
   <g id="text_9">
    <!-- Europe: peak outbreak by disease and realism -->
    <g transform="translate(31.350781 8.278594) scale(0.09 -0.09)">
     <defs>
      <path id="DejaVuSerif-28" d="M 353 0 
L 353 331 
L 947 331 
L 947 4331 
L 353 4331 
L 353 4666 
L 4109 4666 
L 4109 3628 
L 3725 3628 
L 3725 4281 
L 1581 4281 
L 1581 2719 
L 3109 2719 
L 3109 3303 
L 3494 3303 
L 3494 1753 
L 3109 1753 
L 3109 2338 
L 1581 2338 
L 1581 384 
L 3775 384 
L 3775 1038 
L 4159 1038 
L 4159 0 
L 353 0 
z
" transform="scale(0.015625)"/>
      <path id="DejaVuSerif-58" d="M 2266 3322 
L 3341 3322 
L 3341 331 
L 3884 331 
L 3884 0 
L 2766 0 
L 2766 588 
Q 2606 256 2353 82 
Q 2100 -91 1766 -91 
Q 1213 -91 952 223 
Q 691 538 691 1209 
L 691 2988 
L 172 2988 
L 172 3322 
L 1269 3322 
L 1269 1388 
Q 1269 781 1417 556 
Q 1566 331 1947 331 
Q 2347 331 2556 625 
Q 2766 919 2766 1478 
L 2766 2988 
L 2266 2988 
L 2266 3322 
z
" transform="scale(0.015625)"/>
      <path id="DejaVuSerif-1d" d="M 666 325 
Q 666 500 786 622 
Q 906 744 1081 744 
Q 1256 744 1376 622 
Q 1497 500 1497 325 
Q 1497 150 1378 29 
Q 1259 -91 1081 -91 
Q 903 -91 784 29 
Q 666 150 666 325 
z
M 666 2363 
Q 666 2538 786 2658 
Q 906 2778 1081 2778 
Q 1259 2778 1378 2659 
Q 1497 2541 1497 2363 
Q 1497 2184 1378 2065 
Q 1259 1947 1081 1947 
Q 906 1947 786 2067 
Q 666 2188 666 2363 
z
" transform="scale(0.015625)"/>
      <path id="DejaVuSerif-45" d="M 738 331 
L 738 4531 
L 184 4531 
L 184 4863 
L 1313 4863 
L 1313 2803 
Q 1481 3116 1742 3264 
Q 2003 3413 2388 3413 
Q 3000 3413 3387 2928 
Q 3775 2444 3775 1663 
Q 3775 881 3387 395 
Q 3000 -91 2388 -91 
Q 2003 -91 1742 57 
Q 1481 206 1313 519 
L 1313 0 
L 184 0 
L 184 331 
L 738 331 
z
M 1313 1497 
Q 1313 897 1542 583 
Q 1772 269 2209 269 
Q 2650 269 2876 622 
Q 3103 975 3103 1663 
Q 3103 2353 2876 2703 
Q 2650 3053 2209 3053 
Q 1772 3053 1542 2737 
Q 1313 2422 1313 1825 
L 1313 1497 
z
" transform="scale(0.015625)"/>
      <path id="DejaVuSerif-5c" d="M 1381 -609 
L 1600 -56 
L 359 2988 
L -19 2988 
L -19 3322 
L 1509 3322 
L 1509 2988 
L 978 2988 
L 1913 703 
L 2847 2988 
L 2350 2988 
L 2350 3322 
L 3597 3322 
L 3597 2988 
L 3225 2988 
L 1703 -750 
Q 1547 -1138 1356 -1280 
Q 1166 -1422 819 -1422 
Q 672 -1422 517 -1397 
Q 363 -1372 206 -1325 
L 206 -691 
L 500 -691 
Q 519 -903 608 -995 
Q 697 -1088 884 -1088 
Q 1056 -1088 1161 -992 
Q 1266 -897 1381 -609 
z
" transform="scale(0.015625)"/>
      <path id="DejaVuSerif-47" d="M 3359 331 
L 3909 331 
L 3909 0 
L 2784 0 
L 2784 519 
Q 2616 206 2355 57 
Q 2094 -91 1709 -91 
Q 1097 -91 708 395 
Q 319 881 319 1663 
Q 319 2444 706 2928 
Q 1094 3413 1709 3413 
Q 2094 3413 2355 3264 
Q 2616 3116 2784 2803 
L 2784 4531 
L 2241 4531 
L 2241 4863 
L 3359 4863 
L 3359 331 
z
M 2784 1497 
L 2784 1825 
Q 2784 2422 2554 2737 
Q 2325 3053 1888 3053 
Q 1444 3053 1217 2703 
Q 991 2353 991 1663 
Q 991 975 1217 622 
Q 1444 269 1888 269 
Q 2325 269 2554 583 
Q 2784 897 2784 1497 
z
" transform="scale(0.015625)"/>
      <path id="DejaVuSerif-50" d="M 3316 2675 
Q 3481 3041 3739 3227 
Q 3997 3413 4341 3413 
Q 4863 3413 5119 3089 
Q 5375 2766 5375 2113 
L 5375 331 
L 5894 331 
L 5894 0 
L 4300 0 
L 4300 331 
L 4800 331 
L 4800 2047 
Q 4800 2556 4650 2772 
Q 4500 2988 4153 2988 
Q 3769 2988 3567 2697 
Q 3366 2406 3366 1850 
L 3366 331 
L 3866 331 
L 3866 0 
L 2291 0 
L 2291 331 
L 2791 331 
L 2791 2069 
Q 2791 2566 2641 2777 
Q 2491 2988 2144 2988 
Q 1759 2988 1557 2697 
Q 1356 2406 1356 1850 
L 1356 331 
L 1856 331 
L 1856 0 
L 263 0 
L 263 331 
L 781 331 
L 781 2994 
L 231 2994 
L 231 3322 
L 1356 3322 
L 1356 2731 
Q 1516 3063 1762 3238 
Q 2009 3413 2322 3413 
Q 2709 3413 2968 3220 
Q 3228 3028 3316 2675 
z
" transform="scale(0.015625)"/>
     </defs>
     <use xlink:href="#DejaVuSerif-28"/>
     <use xlink:href="#DejaVuSerif-58" transform="translate(73 0)"/>
     <use xlink:href="#DejaVuSerif-55" transform="translate(137.40625 0)"/>
     <use xlink:href="#DejaVuSerif-52" transform="translate(185.203125 0)"/>
     <use xlink:href="#DejaVuSerif-53" transform="translate(245.40625 0)"/>
     <use xlink:href="#DejaVuSerif-48" transform="translate(309.421875 0)"/>
     <use xlink:href="#DejaVuSerif-1d" transform="translate(368.609375 0)"/>
     <use xlink:href="#DejaVuSerif-3" transform="translate(402.296875 0)"/>
     <use xlink:href="#DejaVuSerif-53" transform="translate(434.078125 0)"/>
     <use xlink:href="#DejaVuSerif-48" transform="translate(498.09375 0)"/>
     <use xlink:href="#DejaVuSerif-44" transform="translate(557.28125 0)"/>
     <use xlink:href="#DejaVuSerif-4e" transform="translate(616.90625 0)"/>
     <use xlink:href="#DejaVuSerif-3" transform="translate(677.5 0)"/>
     <use xlink:href="#DejaVuSerif-52" transform="translate(709.28125 0)"/>
     <use xlink:href="#DejaVuSerif-58" transform="translate(769.484375 0)"/>
     <use xlink:href="#DejaVuSerif-57" transform="translate(833.890625 0)"/>
     <use xlink:href="#DejaVuSerif-45" transform="translate(874.078125 0)"/>
     <use xlink:href="#DejaVuSerif-55" transform="translate(938.09375 0)"/>
     <use xlink:href="#DejaVuSerif-48" transform="translate(985.890625 0)"/>
     <use xlink:href="#DejaVuSerif-44" transform="translate(1045.078125 0)"/>
     <use xlink:href="#DejaVuSerif-4e" transform="translate(1104.703125 0)"/>
     <use xlink:href="#DejaVuSerif-3" transform="translate(1165.296875 0)"/>
     <use xlink:href="#DejaVuSerif-45" transform="translate(1197.078125 0)"/>
     <use xlink:href="#DejaVuSerif-5c" transform="translate(1261.09375 0)"/>
     <use xlink:href="#DejaVuSerif-3" transform="translate(1317.59375 0)"/>
     <use xlink:href="#DejaVuSerif-47" transform="translate(1349.375 0)"/>
     <use xlink:href="#DejaVuSerif-4c" transform="translate(1413.390625 0)"/>
     <use xlink:href="#DejaVuSerif-56" transform="translate(1445.375 0)"/>
     <use xlink:href="#DejaVuSerif-48" transform="translate(1496.6875 0)"/>
     <use xlink:href="#DejaVuSerif-44" transform="translate(1555.875 0)"/>
     <use xlink:href="#DejaVuSerif-56" transform="translate(1615.5 0)"/>
     <use xlink:href="#DejaVuSerif-48" transform="translate(1666.8125 0)"/>
     <use xlink:href="#DejaVuSerif-3" transform="translate(1726 0)"/>
     <use xlink:href="#DejaVuSerif-44" transform="translate(1757.78125 0)"/>
     <use xlink:href="#DejaVuSerif-51" transform="translate(1817.40625 0)"/>
     <use xlink:href="#DejaVuSerif-47" transform="translate(1881.8125 0)"/>
     <use xlink:href="#DejaVuSerif-3" transform="translate(1945.828125 0)"/>
     <use xlink:href="#DejaVuSerif-55" transform="translate(1977.609375 0)"/>
     <use xlink:href="#DejaVuSerif-48" transform="translate(2025.40625 0)"/>
     <use xlink:href="#DejaVuSerif-44" transform="translate(2084.59375 0)"/>
     <use xlink:href="#DejaVuSerif-4f" transform="translate(2144.21875 0)"/>
     <use xlink:href="#DejaVuSerif-4c" transform="translate(2176.203125 0)"/>
     <use xlink:href="#DejaVuSerif-56" transform="translate(2208.1875 0)"/>
     <use xlink:href="#DejaVuSerif-50" transform="translate(2259.5 0)"/>
    </g>
   </g>
   <g id="legend_1">
    <g id="text_10">
     <!-- substrate -->
     <g transform="translate(118.174297 183.663424) scale(0.08 -0.08)">
      <use xlink:href="#DejaVuSerif-56"/>
      <use xlink:href="#DejaVuSerif-58" transform="translate(51.3125 0)"/>
      <use xlink:href="#DejaVuSerif-45" transform="translate(115.71875 0)"/>
      <use xlink:href="#DejaVuSerif-56" transform="translate(179.734375 0)"/>
      <use xlink:href="#DejaVuSerif-57" transform="translate(231.046875 0)"/>
      <use xlink:href="#DejaVuSerif-55" transform="translate(271.234375 0)"/>
      <use xlink:href="#DejaVuSerif-44" transform="translate(319.03125 0)"/>
      <use xlink:href="#DejaVuSerif-57" transform="translate(378.65625 0)"/>
      <use xlink:href="#DejaVuSerif-48" transform="translate(418.84375 0)"/>
     </g>
    </g>
    <g id="patch_11">
     <path d="M 65.215781 194.404205 
L 79.215781 194.404205 
L 79.215781 189.504205 
L 65.215781 189.504205 
z
" style="fill: #9ecae1"/>
    </g>
    <g id="text_11">
     <!-- air -->
     <g transform="translate(84.815781 194.404205) scale(0.07 -0.07)">
      <use xlink:href="#DejaVuSerif-44"/>
      <use xlink:href="#DejaVuSerif-4c" transform="translate(59.625 0)"/>
      <use xlink:href="#DejaVuSerif-55" transform="translate(91.609375 0)"/>
     </g>
    </g>
    <g id="patch_12">
     <path d="M 108.574219 194.404205 
L 122.574219 194.404205 
L 122.574219 189.504205 
L 108.574219 189.504205 
z
" style="fill: #4292c6"/>
    </g>
    <g id="text_12">
     <!-- +water -->
     <g transform="translate(128.174219 194.404205) scale(0.07 -0.07)">
      <defs>
       <path id="DejaVuSerif-e" d="M 2931 4013 
L 2931 2259 
L 4684 2259 
L 4684 1753 
L 2931 1753 
L 2931 0 
L 2431 0 
L 2431 1753 
L 678 1753 
L 678 2259 
L 2431 2259 
L 2431 4013 
L 2931 4013 
z
" transform="scale(0.015625)"/>
       <path id="DejaVuSerif-5a" d="M 3072 3322 
L 3922 728 
L 4672 2988 
L 4191 2988 
L 4191 3322 
L 5394 3322 
L 5394 2988 
L 5025 2988 
L 4038 0 
L 3559 0 
L 2741 2484 
L 1919 0 
L 1459 0 
L 475 2988 
L 103 2988 
L 103 3322 
L 1606 3322 
L 1606 2988 
L 1069 2988 
L 1813 728 
L 2669 3322 
L 3072 3322 
z
" transform="scale(0.015625)"/>
      </defs>
      <use xlink:href="#DejaVuSerif-e"/>
      <use xlink:href="#DejaVuSerif-5a" transform="translate(83.796875 0)"/>
      <use xlink:href="#DejaVuSerif-44" transform="translate(169.390625 0)"/>
      <use xlink:href="#DejaVuSerif-57" transform="translate(229.015625 0)"/>
      <use xlink:href="#DejaVuSerif-48" transform="translate(269.203125 0)"/>
      <use xlink:href="#DejaVuSerif-55" transform="translate(328.390625 0)"/>
     </g>
    </g>
    <g id="patch_13">
     <path d="M 168.507344 194.404205 
L 182.507344 194.404205 
L 182.507344 189.504205 
L 168.507344 189.504205 
z
" style="fill: #084594"/>
    </g>
    <g id="text_13">
     <!-- +land -->
     <g transform="translate(188.107344 194.404205) scale(0.07 -0.07)">
      <use xlink:href="#DejaVuSerif-e"/>
      <use xlink:href="#DejaVuSerif-4f" transform="translate(83.796875 0)"/>
      <use xlink:href="#DejaVuSerif-44" transform="translate(115.78125 0)"/>
      <use xlink:href="#DejaVuSerif-51" transform="translate(175.40625 0)"/>
      <use xlink:href="#DejaVuSerif-47" transform="translate(239.8125 0)"/>
     </g>
    </g>
   </g>
  </g>
 </g>
 <defs>
  <clipPath id="p4c549d2833">
   <rect x="42.435547" y="14.278594" width="189.72" height="133.056"/>
  </clipPath>
 </defs>
</svg>
