<?xml version="1.0" encoding="utf-8" standalone="no"?>
<!DOCTYPE svg PUBLIC "-//W3C//DTD SVG 1.1//EN"
  "http://www.w3.org/Graphics/SVG/1.1/DTD/svg11.dtd">
<svg xmlns:xlink="http://www.w3.org/1999/xlink" width="489.353672pt" height="177.472992pt" viewBox="0 0 489.353672 177.472992" xmlns="http://www.w3.org/2000/svg" version="1.1">
 <metadata>
  <rdf:RDF xmlns:dc="http://purl.org/dc/elements/1.1/" xmlns:cc="http://creativecommons.org/ns#" xmlns:rdf="http://www.w3.org/1999/02/22-rdf-syntax-ns#">
   <cc:Work>
    <dc:type rdf:resource="http://purl.org/dc/dcmitype/StillImage"/>
    <dc:date>2026-06-30T17:12:55.142866</dc:date>
    <dc:format>image/svg+xml</dc:format>
    <dc:creator>
     <cc:Agent>
      <dc:title>Matplotlib v3.11.0, https://matplotlib.org/</dc:title>
     </cc:Agent>
    </dc:creator>
   </cc:Work>
  </rdf:RDF>
 </metadata>
 <defs>
  <style type="text/css">*{stroke-linejoin: round; stroke-linecap: butt}</style>
 </defs>
 <g id="figure_1">
  <g id="patch_1">
   <path d="M 0 177.472992 
L 489.353672 177.472992 
L 489.353672 0 
L 0 0 
z
" style="fill: #ffffff"/>
  </g>
  <g id="axes_1">
   <g id="patch_2">
    <path d="M 42.435547 149.532367 
L 259.104609 149.532367 
L 259.104609 48.045891 
L 42.435547 48.045891 
z
" style="fill: #ffffff"/>
   </g>
   <g id="matplotlib.axis_1">
    <g id="xtick_1">
     <g id="line2d_1">
      <defs>
       <path id="m37f48bab53" d="M 0 0 
L 0 3.5 
" style="stroke: #000000; stroke-width: 0.8"/>
      </defs>
      <g>
       <use xlink:href="#m37f48bab53" x="52.284141" y="149.532367" style="stroke: #000000; stroke-width: 0.8"/>
      </g>
     </g>
     <g id="text_1">
      <!-- 0 -->
      <g transform="translate(49.898203 162.230609) scale(0.075 -0.075)">
       <defs>
        <path id="DejaVuSerif-13" d="M 2034 219 
Q 2513 219 2750 744 
Q 2988 1269 2988 2328 
Q 2988 3391 2750 3916 
Q 2513 4441 2034 4441 
Q 1556 4441 1318 3916 
Q 1081 3391 1081 2328 
Q 1081 1269 1318 744 
Q 1556 219 2034 219 
z
M 2034 -91 
Q 1275 -91 848 546 
Q 422 1184 422 2328 
Q 422 3475 848 4112 
Q 1275 4750 2034 4750 
Q 2797 4750 3222 4112 
Q 3647 3475 3647 2328 
Q 3647 1184 3222 546 
Q 2797 -91 2034 -91 
z
" transform="scale(0.015625)"/>
       </defs>
       <use xlink:href="#DejaVuSerif-13"/>
      </g>
     </g>
    </g>
    <g id="xtick_2">
     <g id="line2d_2">
      <g>
       <use xlink:href="#m37f48bab53" x="99.406599" y="149.532367" style="stroke: #000000; stroke-width: 0.8"/>
      </g>
     </g>
     <g id="text_2">
      <!-- 50 -->
      <g transform="translate(94.634724 162.230609) scale(0.075 -0.075)">
       <defs>
        <path id="DejaVuSerif-18" d="M 3219 4666 
L 3219 4153 
L 1081 4153 
L 1081 2816 
Q 1244 2928 1461 2984 
Q 1678 3041 1947 3041 
Q 2703 3041 3140 2622 
Q 3578 2203 3578 1478 
Q 3578 738 3136 323 
Q 2694 -91 1894 -91 
Q 1572 -91 1234 -12 
Q 897 66 544 225 
L 544 1131 
L 897 1131 
Q 925 688 1179 453 
Q 1434 219 1894 219 
Q 2388 219 2653 544 
Q 2919 869 2919 1478 
Q 2919 2084 2655 2407 
Q 2391 2731 1894 2731 
Q 1613 2731 1398 2631 
Q 1184 2531 1019 2322 
L 750 2322 
L 750 4666 
L 3219 4666 
z
" transform="scale(0.015625)"/>
       </defs>
       <use xlink:href="#DejaVuSerif-18"/>
       <use xlink:href="#DejaVuSerif-13" transform="translate(63.625 0)"/>
      </g>
     </g>
    </g>
    <g id="xtick_3">
     <g id="line2d_3">
      <g>
       <use xlink:href="#m37f48bab53" x="146.529057" y="149.532367" style="stroke: #000000; stroke-width: 0.8"/>
      </g>
     </g>
     <g id="text_3">
      <!-- 100 -->
      <g transform="translate(139.371244 162.230609) scale(0.075 -0.075)">
       <defs>
        <path id="DejaVuSerif-14" d="M 909 0 
L 909 331 
L 1722 331 
L 1722 4213 
L 781 3603 
L 781 4013 
L 1919 4750 
L 2350 4750 
L 2350 331 
L 3163 331 
L 3163 0 
L 909 0 
z
" transform="scale(0.015625)"/>
       </defs>
       <use xlink:href="#DejaVuSerif-14"/>
       <use xlink:href="#DejaVuSerif-13" transform="translate(63.625 0)"/>
       <use xlink:href="#DejaVuSerif-13" transform="translate(127.25 0)"/>
      </g>
     </g>
    </g>
    <g id="xtick_4">
     <g id="line2d_4">
      <g>
       <use xlink:href="#m37f48bab53" x="193.651515" y="149.532367" style="stroke: #000000; stroke-width: 0.8"/>
      </g>
     </g>
     <g id="text_4">
      <!-- 150 -->
      <g transform="translate(186.493703 162.230609) scale(0.075 -0.075)">
       <use xlink:href="#DejaVuSerif-14"/>
       <use xlink:href="#DejaVuSerif-18" transform="translate(63.625 0)"/>
       <use xlink:href="#DejaVuSerif-13" transform="translate(127.25 0)"/>
      </g>
     </g>
    </g>
    <g id="xtick_5">
     <g id="line2d_5">
      <g>
       <use xlink:href="#m37f48bab53" x="240.773973" y="149.532367" style="stroke: #000000; stroke-width: 0.8"/>
      </g>
     </g>
     <g id="text_5">
      <!-- 200 -->
      <g transform="translate(233.616161 162.230609) scale(0.075 -0.075)">
       <defs>
        <path id="DejaVuSerif-15" d="M 819 3553 
L 469 3553 
L 469 4384 
Q 803 4563 1142 4656 
Q 1481 4750 1806 4750 
Q 2534 4750 2956 4397 
Q 3378 4044 3378 3438 
Q 3378 2753 2422 1800 
Q 2347 1728 2309 1691 
L 1131 513 
L 3078 513 
L 3078 1088 
L 3444 1088 
L 3444 0 
L 434 0 
L 434 341 
L 1850 1753 
Q 2319 2222 2519 2614 
Q 2719 3006 2719 3438 
Q 2719 3909 2473 4175 
Q 2228 4441 1797 4441 
Q 1350 4441 1106 4219 
Q 863 3997 819 3553 
z
" transform="scale(0.015625)"/>
       </defs>
       <use xlink:href="#DejaVuSerif-15"/>
       <use xlink:href="#DejaVuSerif-13" transform="translate(63.625 0)"/>
       <use xlink:href="#DejaVuSerif-13" transform="translate(127.25 0)"/>
      </g>
     </g>
    </g>
    <g id="text_6">
     <!-- day -->
     <g transform="translate(143.564453 174.111117) scale(0.08 -0.08)">
      <defs>
       <path id="DejaVuSerif-47" d="M 3359 331 
L 3909 331 
L 3909 0 
L 2784 0 
L 2784 519 
Q 2616 206 2355 57 
Q 2094 -91 1709 -91 
Q 1097 -91 708 395 
Q 319 881 319 1663 
Q 319 2444 706 2928 
Q 1094 3413 1709 3413 
Q 2094 3413 2355 3264 
Q 2616 3116 2784 2803 
L 2784 4531 
L 2241 4531 
L 2241 4863 
L 3359 4863 
L 3359 331 
z
M 2784 1497 
L 2784 1825 
Q 2784 2422 2554 2737 
Q 2325 3053 1888 3053 
Q 1444 3053 1217 2703 
Q 991 2353 991 1663 
Q 991 975 1217 622 
Q 1444 269 1888 269 
Q 2325 269 2554 583 
Q 2784 897 2784 1497 
z
" transform="scale(0.015625)"/>
       <path id="DejaVuSerif-44" d="M 2547 1044 
L 2547 1747 
L 1806 1747 
Q 1378 1747 1168 1562 
Q 959 1378 959 997 
Q 959 650 1171 447 
Q 1384 244 1747 244 
Q 2106 244 2326 466 
Q 2547 688 2547 1044 
z
M 3122 2075 
L 3122 331 
L 3634 331 
L 3634 0 
L 2547 0 
L 2547 359 
Q 2356 128 2106 18 
Q 1856 -91 1522 -91 
Q 969 -91 644 203 
Q 319 497 319 997 
Q 319 1513 691 1797 
Q 1063 2081 1741 2081 
L 2547 2081 
L 2547 2309 
Q 2547 2688 2317 2895 
Q 2088 3103 1672 3103 
Q 1328 3103 1125 2947 
Q 922 2791 872 2484 
L 575 2484 
L 575 3156 
Q 875 3284 1158 3348 
Q 1441 3413 1709 3413 
Q 2400 3413 2761 3070 
Q 3122 2728 3122 2075 
z
" transform="scale(0.015625)"/>
       <path id="DejaVuSerif-5c" d="M 1381 -609 
L 1600 -56 
L 359 2988 
L -19 2988 
L -19 3322 
L 1509 3322 
L 1509 2988 
L 978 2988 
L 1913 703 
L 2847 2988 
L 2350 2988 
L 2350 3322 
L 3597 3322 
L 3597 2988 
L 3225 2988 
L 1703 -750 
Q 1547 -1138 1356 -1280 
Q 1166 -1422 819 -1422 
Q 672 -1422 517 -1397 
Q 363 -1372 206 -1325 
L 206 -691 
L 500 -691 
Q 519 -903 608 -995 
Q 697 -1088 884 -1088 
Q 1056 -1088 1161 -992 
Q 1266 -897 1381 -609 
z
" transform="scale(0.015625)"/>
      </defs>
      <use xlink:href="#DejaVuSerif-47"/>
      <use xlink:href="#DejaVuSerif-44" transform="translate(64.015625 0)"/>
      <use xlink:href="#DejaVuSerif-5c" transform="translate(123.640625 0)"/>
     </g>
    </g>
   </g>
   <g id="matplotlib.axis_2">
    <g id="ytick_1">
     <g id="line2d_6">
      <defs>
       <path id="md1f285a78b" d="M 0 0 
L -3.5 0 
" style="stroke: #000000; stroke-width: 0.8"/>
      </defs>
      <g>
       <use xlink:href="#md1f285a78b" x="42.435547" y="144.919346" style="stroke: #000000; stroke-width: 0.8"/>
      </g>
     </g>
     <g id="text_7">
      <!-- 0k -->
      <g transform="translate(26.119141 147.76876) scale(0.075 -0.075)">
       <defs>
        <path id="DejaVuSerif-4e" d="M 1831 0 
L 219 0 
L 219 331 
L 738 331 
L 738 4531 
L 184 4531 
L 184 4863 
L 1313 4863 
L 1313 1697 
L 2713 2988 
L 2234 2988 
L 2234 3322 
L 3738 3322 
L 3738 2988 
L 3169 2988 
L 2181 2075 
L 3444 331 
L 3922 331 
L 3922 0 
L 2284 0 
L 2284 331 
L 2759 331 
L 1766 1697 
L 1313 1275 
L 1313 331 
L 1831 331 
L 1831 0 
z
" transform="scale(0.015625)"/>
       </defs>
       <use xlink:href="#DejaVuSerif-13"/>
       <use xlink:href="#DejaVuSerif-4e" transform="translate(63.625 0)"/>
      </g>
     </g>
    </g>
    <g id="ytick_2">
     <g id="line2d_7">
      <g>
       <use xlink:href="#md1f285a78b" x="42.435547" y="123.510336" style="stroke: #000000; stroke-width: 0.8"/>
      </g>
     </g>
     <g id="text_8">
      <!-- 50M -->
      <g transform="translate(18.2125 126.359457) scale(0.075 -0.075)">
       <defs>
        <path id="DejaVuSerif-30" d="M 353 0 
L 353 331 
L 947 331 
L 947 4331 
L 319 4331 
L 319 4666 
L 1678 4666 
L 3316 1344 
L 4953 4666 
L 6228 4666 
L 6228 4331 
L 5606 4331 
L 5606 331 
L 6203 331 
L 6203 0 
L 4378 0 
L 4378 331 
L 4972 331 
L 4972 3938 
L 3372 684 
L 2931 684 
L 1331 3938 
L 1331 331 
L 1925 331 
L 1925 0 
L 353 0 
z
" transform="scale(0.015625)"/>
       </defs>
       <use xlink:href="#DejaVuSerif-18"/>
       <use xlink:href="#DejaVuSerif-13" transform="translate(63.625 0)"/>
       <use xlink:href="#DejaVuSerif-30" transform="translate(127.25 0)"/>
      </g>
     </g>
    </g>
    <g id="ytick_3">
     <g id="line2d_8">
      <g>
       <use xlink:href="#md1f285a78b" x="42.435547" y="102.101326" style="stroke: #000000; stroke-width: 0.8"/>
      </g>
     </g>
     <g id="text_9">
      <!-- 100M -->
      <g transform="translate(13.440625 104.950447) scale(0.075 -0.075)">
       <use xlink:href="#DejaVuSerif-14"/>
       <use xlink:href="#DejaVuSerif-13" transform="translate(63.625 0)"/>
       <use xlink:href="#DejaVuSerif-13" transform="translate(127.25 0)"/>
       <use xlink:href="#DejaVuSerif-30" transform="translate(190.875 0)"/>
      </g>
     </g>
    </g>
    <g id="ytick_4">
     <g id="line2d_9">
      <g>
       <use xlink:href="#md1f285a78b" x="42.435547" y="80.692316" style="stroke: #000000; stroke-width: 0.8"/>
      </g>
     </g>
     <g id="text_10">
      <!-- 150M -->
      <g transform="translate(13.440625 83.541437) scale(0.075 -0.075)">
       <use xlink:href="#DejaVuSerif-14"/>
       <use xlink:href="#DejaVuSerif-18" transform="translate(63.625 0)"/>
       <use xlink:href="#DejaVuSerif-13" transform="translate(127.25 0)"/>
       <use xlink:href="#DejaVuSerif-30" transform="translate(190.875 0)"/>
      </g>
     </g>
    </g>
    <g id="ytick_5">
     <g id="line2d_10">
      <g>
       <use xlink:href="#md1f285a78b" x="42.435547" y="59.283306" style="stroke: #000000; stroke-width: 0.8"/>
      </g>
     </g>
     <g id="text_11">
      <!-- 200M -->
      <g transform="translate(13.440625 62.132427) scale(0.075 -0.075)">
       <use xlink:href="#DejaVuSerif-15"/>
       <use xlink:href="#DejaVuSerif-13" transform="translate(63.625 0)"/>
       <use xlink:href="#DejaVuSerif-13" transform="translate(127.25 0)"/>
       <use xlink:href="#DejaVuSerif-30" transform="translate(190.875 0)"/>
      </g>
     </g>
    </g>
    <g id="text_12">
     <!-- active infections -->
     <g transform="translate(7.51875 132.067254) rotate(-90) scale(0.08 -0.08)">
      <defs>
       <path id="DejaVuSerif-46" d="M 3291 997 
Q 3169 466 2822 187 
Q 2475 -91 1925 -91 
Q 1200 -91 759 389 
Q 319 869 319 1663 
Q 319 2459 759 2936 
Q 1200 3413 1925 3413 
Q 2241 3413 2553 3339 
Q 2866 3266 3181 3116 
L 3181 2266 
L 2847 2266 
Q 2781 2703 2561 2903 
Q 2341 3103 1931 3103 
Q 1466 3103 1228 2742 
Q 991 2381 991 1663 
Q 991 944 1227 581 
Q 1463 219 1931 219 
Q 2303 219 2525 412 
Q 2747 606 2828 997 
L 3291 997 
z
" transform="scale(0.015625)"/>
       <path id="DejaVuSerif-57" d="M 691 2988 
L 184 2988 
L 184 3322 
L 691 3322 
L 691 4353 
L 1269 4353 
L 1269 3322 
L 2350 3322 
L 2350 2988 
L 1269 2988 
L 1269 878 
Q 1269 456 1350 337 
Q 1431 219 1650 219 
Q 1875 219 1978 351 
Q 2081 484 2088 781 
L 2522 781 
Q 2497 328 2275 118 
Q 2053 -91 1600 -91 
Q 1103 -91 897 129 
Q 691 350 691 878 
L 691 2988 
z
" transform="scale(0.015625)"/>
       <path id="DejaVuSerif-4c" d="M 622 4353 
Q 622 4497 726 4603 
Q 831 4709 978 4709 
Q 1122 4709 1226 4603 
Q 1331 4497 1331 4353 
Q 1331 4206 1228 4103 
Q 1125 4000 978 4000 
Q 831 4000 726 4103 
Q 622 4206 622 4353 
z
M 1356 331 
L 1900 331 
L 1900 0 
L 231 0 
L 231 331 
L 781 331 
L 781 2988 
L 231 2988 
L 231 3322 
L 1356 3322 
L 1356 331 
z
" transform="scale(0.015625)"/>
       <path id="DejaVuSerif-59" d="M 1581 0 
L 359 2988 
L -19 2988 
L -19 3322 
L 1509 3322 
L 1509 2988 
L 978 2988 
L 1913 703 
L 2847 2988 
L 2350 2988 
L 2350 3322 
L 3597 3322 
L 3597 2988 
L 3225 2988 
L 2003 0 
L 1581 0 
z
" transform="scale(0.015625)"/>
       <path id="DejaVuSerif-48" d="M 3469 1600 
L 991 1600 
L 991 1575 
Q 991 903 1244 561 
Q 1497 219 1991 219 
Q 2369 219 2611 417 
Q 2853 616 2950 1006 
L 3413 1006 
Q 3275 459 2904 184 
Q 2534 -91 1931 -91 
Q 1203 -91 761 389 
Q 319 869 319 1663 
Q 319 2450 753 2931 
Q 1188 3413 1894 3413 
Q 2647 3413 3050 2948 
Q 3453 2484 3469 1600 
z
M 2791 1931 
Q 2772 2513 2545 2808 
Q 2319 3103 1894 3103 
Q 1497 3103 1269 2806 
Q 1041 2509 991 1931 
L 2791 1931 
z
" transform="scale(0.015625)"/>
       <path id="DejaVuSerif-3" transform="scale(0.015625)"/>
       <path id="DejaVuSerif-51" d="M 263 0 
L 263 331 
L 781 331 
L 781 2988 
L 231 2988 
L 231 3322 
L 1356 3322 
L 1356 2731 
Q 1516 3069 1770 3241 
Q 2025 3413 2363 3413 
Q 2913 3413 3172 3097 
Q 3431 2781 3431 2113 
L 3431 331 
L 3944 331 
L 3944 0 
L 2356 0 
L 2356 331 
L 2853 331 
L 2853 1931 
Q 2853 2541 2703 2767 
Q 2553 2994 2175 2994 
Q 1775 2994 1565 2701 
Q 1356 2409 1356 1850 
L 1356 331 
L 1856 331 
L 1856 0 
L 263 0 
z
" transform="scale(0.015625)"/>
       <path id="DejaVuSerif-49" d="M 2753 4078 
L 2450 4078 
Q 2447 4313 2317 4434 
Q 2188 4556 1941 4556 
Q 1619 4556 1487 4379 
Q 1356 4203 1356 3750 
L 1356 3322 
L 2284 3322 
L 2284 2988 
L 1356 2988 
L 1356 331 
L 2094 331 
L 2094 0 
L 231 0 
L 231 331 
L 781 331 
L 781 2988 
L 231 2988 
L 231 3322 
L 781 3322 
L 781 3738 
Q 781 4294 1070 4578 
Q 1359 4863 1919 4863 
Q 2128 4863 2337 4825 
Q 2547 4788 2753 4709 
L 2753 4078 
z
" transform="scale(0.015625)"/>
       <path id="DejaVuSerif-52" d="M 1925 219 
Q 2388 219 2623 584 
Q 2859 950 2859 1663 
Q 2859 2375 2623 2739 
Q 2388 3103 1925 3103 
Q 1463 3103 1227 2739 
Q 991 2375 991 1663 
Q 991 950 1228 584 
Q 1466 219 1925 219 
z
M 1925 -91 
Q 1200 -91 759 389 
Q 319 869 319 1663 
Q 319 2456 758 2934 
Q 1197 3413 1925 3413 
Q 2653 3413 3092 2934 
Q 3531 2456 3531 1663 
Q 3531 869 3092 389 
Q 2653 -91 1925 -91 
z
" transform="scale(0.015625)"/>
       <path id="DejaVuSerif-56" d="M 359 184 
L 359 959 
L 691 959 
Q 703 588 923 403 
Q 1144 219 1575 219 
Q 1963 219 2166 364 
Q 2369 509 2369 788 
Q 2369 1006 2220 1140 
Q 2072 1275 1594 1428 
L 1178 1569 
Q 750 1706 558 1912 
Q 366 2119 366 2438 
Q 366 2894 700 3153 
Q 1034 3413 1625 3413 
Q 1888 3413 2178 3344 
Q 2469 3275 2778 3144 
L 2778 2419 
L 2447 2419 
Q 2434 2741 2221 2922 
Q 2009 3103 1644 3103 
Q 1281 3103 1095 2975 
Q 909 2847 909 2591 
Q 909 2381 1050 2254 
Q 1191 2128 1613 1997 
L 2069 1856 
Q 2541 1709 2748 1489 
Q 2956 1269 2956 922 
Q 2956 450 2595 179 
Q 2234 -91 1600 -91 
Q 1278 -91 972 -22 
Q 666 47 359 184 
z
" transform="scale(0.015625)"/>
      </defs>
      <use xlink:href="#DejaVuSerif-44"/>
      <use xlink:href="#DejaVuSerif-46" transform="translate(59.625 0)"/>
      <use xlink:href="#DejaVuSerif-57" transform="translate(115.625 0)"/>
      <use xlink:href="#DejaVuSerif-4c" transform="translate(155.8125 0)"/>
      <use xlink:href="#DejaVuSerif-59" transform="translate(187.796875 0)"/>
      <use xlink:href="#DejaVuSerif-48" transform="translate(244.296875 0)"/>
      <use xlink:href="#DejaVuSerif-3" transform="translate(303.484375 0)"/>
      <use xlink:href="#DejaVuSerif-4c" transform="translate(335.265625 0)"/>
      <use xlink:href="#DejaVuSerif-51" transform="translate(367.25 0)"/>
      <use xlink:href="#DejaVuSerif-49" transform="translate(431.65625 0)"/>
      <use xlink:href="#DejaVuSerif-48" transform="translate(468.671875 0)"/>
      <use xlink:href="#DejaVuSerif-46" transform="translate(527.859375 0)"/>
      <use xlink:href="#DejaVuSerif-57" transform="translate(583.859375 0)"/>
      <use xlink:href="#DejaVuSerif-4c" transform="translate(624.046875 0)"/>
      <use xlink:href="#DejaVuSerif-52" transform="translate(656.03125 0)"/>
      <use xlink:href="#DejaVuSerif-51" transform="translate(716.234375 0)"/>
      <use xlink:href="#DejaVuSerif-56" transform="translate(780.640625 0)"/>
     </g>
    </g>
   </g>
   <g id="line2d_11">
    <path d="M 52.284141 144.916352 
L 60.766183 144.82263 
L 61.708632 144.728493 
L 62.651081 144.474408 
L 63.593531 143.884436 
L 64.53598 142.90348 
L 65.478429 141.134207 
L 66.420878 136.672768 
L 67.363327 128.04795 
L 68.305776 117.524615 
L 70.190675 101.097787 
L 71.133124 94.391769 
L 72.075573 92.937525 
L 73.018022 95.128404 
L 73.960471 99.357961 
L 75.84537 109.32668 
L 77.730268 117.819095 
L 78.672717 121.306586 
L 80.557616 126.971986 
L 81.500065 129.305139 
L 82.442514 131.334984 
L 84.327412 134.637341 
L 86.21231 137.136896 
L 88.097209 139.028809 
L 89.982107 140.460798 
L 91.867005 141.544671 
L 93.751904 142.365054 
L 95.636802 142.986003 
L 98.46415 143.646233 
L 101.291497 144.080997 
L 105.061294 144.439058 
L 110.715989 144.71108 
L 119.198031 144.859877 
L 138.989464 144.916153 
L 249.256016 144.919346 
L 249.256016 144.919346 
" clip-path="url(#pb0b6831fa1)" style="fill: none; stroke: #1f77b4; stroke-width: 1.1; stroke-linecap: square"/>
   </g>
   <g id="line2d_12">
    <path d="M 52.284141 144.916352 
L 72.075573 144.912012 
L 188.939269 144.919346 
L 249.256016 144.919346 
L 249.256016 144.919346 
" clip-path="url(#pb0b6831fa1)" style="fill: none; stroke: #ff7f0e; stroke-width: 1.1; stroke-linecap: square"/>
   </g>
   <g id="line2d_13">
    <path d="M 52.284141 144.916352 
L 72.075573 144.912012 
L 188.939269 144.919346 
L 249.256016 144.919346 
L 249.256016 144.919346 
" clip-path="url(#pb0b6831fa1)" style="fill: none; stroke: #2ca02c; stroke-width: 1.1; stroke-linecap: square"/>
   </g>
   <g id="line2d_14">
    <path d="M 52.284141 144.916352 
L 60.766183 144.822717 
L 61.708632 144.729228 
L 62.651081 144.480394 
L 63.593531 143.927753 
L 64.53598 143.159032 
L 65.478429 141.888467 
L 66.420878 138.855531 
L 68.305776 127.964932 
L 69.248226 123.6272 
L 70.190675 117.564179 
L 71.133124 110.396065 
L 72.075573 106.901507 
L 73.018022 105.71401 
L 73.960471 106.676083 
L 75.84537 112.28888 
L 78.672717 122.737446 
L 79.615166 125.551324 
L 81.500065 130.19903 
L 83.384963 133.776806 
L 85.269861 136.481883 
L 87.15476 138.527845 
L 89.039658 140.081578 
L 90.924556 141.257603 
L 92.809455 142.147739 
L 94.694353 142.821487 
L 97.5217 143.537864 
L 100.349048 144.009607 
L 104.118845 144.398131 
L 109.77354 144.693309 
L 118.255582 144.854787 
L 137.104565 144.915358 
L 249.256016 144.919346 
L 249.256016 144.919346 
" clip-path="url(#pb0b6831fa1)" style="fill: none; stroke: #d62728; stroke-width: 1.1; stroke-linecap: square"/>
   </g>
   <g id="line2d_15">
    <path d="M 52.284141 144.916352 
L 60.766183 144.822721 
L 61.708632 144.729113 
L 62.651081 144.479206 
L 63.593531 143.918175 
L 64.53598 143.095715 
L 65.478429 141.649562 
L 66.420878 138.185246 
L 68.305776 126.284803 
L 70.190675 118.101866 
L 71.133124 115.350432 
L 72.075573 113.7906 
L 73.018022 114.33799 
L 73.960471 116.721909 
L 74.902921 118.738721 
L 75.84537 119.686663 
L 76.787819 120.895028 
L 80.557616 130.393788 
L 82.442514 133.771135 
L 83.384963 135.190156 
L 85.269861 137.45811 
L 87.15476 139.248796 
L 89.039658 140.612043 
L 90.924556 141.654922 
L 92.809455 142.417335 
L 94.694353 142.853089 
L 96.579251 143.223008 
L 99.406599 143.774041 
L 103.176395 144.261307 
L 107.888641 144.591355 
L 114.485785 144.795602 
L 126.737624 144.899099 
L 172.917633 144.919323 
L 249.256016 144.919346 
L 249.256016 144.919346 
" clip-path="url(#pb0b6831fa1)" style="fill: none; stroke: #9467bd; stroke-width: 1.1; stroke-linecap: square"/>
   </g>
   <g id="patch_3">
    <path d="M 42.435547 149.532367 
L 42.435547 48.045891 
" style="fill: none; stroke: #000000; stroke-width: 0.8; stroke-linejoin: miter; stroke-linecap: square"/>
   </g>
   <g id="patch_4">
    <path d="M 42.435547 149.532367 
L 259.104609 149.532367 
" style="fill: none; stroke: #000000; stroke-width: 0.8; stroke-linejoin: miter; stroke-linecap: square"/>
   </g>
   <g id="text_13">
    <!-- Air only -->
    <g transform="translate(132.910703 42.045891) scale(0.09 -0.09)">
     <defs>
      <path id="DejaVuSerif-24" d="M 1281 1691 
L 2994 1691 
L 2138 3909 
L 1281 1691 
z
M -38 0 
L -38 331 
L 372 331 
L 2034 4666 
L 2559 4666 
L 4225 331 
L 4684 331 
L 4684 0 
L 2988 0 
L 2988 331 
L 3506 331 
L 3116 1356 
L 1153 1356 
L 763 331 
L 1275 331 
L 1275 0 
L -38 0 
z
" transform="scale(0.015625)"/>
      <path id="DejaVuSerif-55" d="M 3059 3328 
L 3059 2497 
L 2728 2497 
Q 2713 2744 2591 2866 
Q 2469 2988 2234 2988 
Q 1809 2988 1582 2694 
Q 1356 2400 1356 1850 
L 1356 331 
L 2022 331 
L 2022 0 
L 263 0 
L 263 331 
L 781 331 
L 781 2994 
L 231 2994 
L 231 3322 
L 1356 3322 
L 1356 2731 
Q 1525 3078 1790 3245 
Q 2056 3413 2438 3413 
Q 2578 3413 2733 3391 
Q 2888 3369 3059 3328 
z
" transform="scale(0.015625)"/>
      <path id="DejaVuSerif-4f" d="M 1313 331 
L 1856 331 
L 1856 0 
L 184 0 
L 184 331 
L 738 331 
L 738 4531 
L 184 4531 
L 184 4863 
L 1313 4863 
L 1313 331 
z
" transform="scale(0.015625)"/>
     </defs>
     <use xlink:href="#DejaVuSerif-24"/>
     <use xlink:href="#DejaVuSerif-4c" transform="translate(72.21875 0)"/>
     <use xlink:href="#DejaVuSerif-55" transform="translate(104.203125 0)"/>
     <use xlink:href="#DejaVuSerif-3" transform="translate(152 0)"/>
     <use xlink:href="#DejaVuSerif-52" transform="translate(183.78125 0)"/>
     <use xlink:href="#DejaVuSerif-51" transform="translate(243.984375 0)"/>
     <use xlink:href="#DejaVuSerif-4f" transform="translate(308.390625 0)"/>
     <use xlink:href="#DejaVuSerif-5c" transform="translate(340.375 0)"/>
    </g>
   </g>
  </g>
  <g id="axes_2">
   <g id="patch_5">
    <path d="M 271.244609 149.532367 
L 487.913672 149.532367 
L 487.913672 48.045891 
L 271.244609 48.045891 
z
" style="fill: #ffffff"/>
   </g>
   <g id="matplotlib.axis_3">
    <g id="xtick_6">
     <g id="line2d_16">
      <g>
       <use xlink:href="#m37f48bab53" x="281.093203" y="149.532367" style="stroke: #000000; stroke-width: 0.8"/>
      </g>
     </g>
     <g id="text_14">
      <!-- 0 -->
      <g transform="translate(278.707266 162.230609) scale(0.075 -0.075)">
       <use xlink:href="#DejaVuSerif-13"/>
      </g>
     </g>
    </g>
    <g id="xtick_7">
     <g id="line2d_17">
      <g>
       <use xlink:href="#m37f48bab53" x="328.215661" y="149.532367" style="stroke: #000000; stroke-width: 0.8"/>
      </g>
     </g>
     <g id="text_15">
      <!-- 50 -->
      <g transform="translate(323.443786 162.230609) scale(0.075 -0.075)">
       <use xlink:href="#DejaVuSerif-18"/>
       <use xlink:href="#DejaVuSerif-13" transform="translate(63.625 0)"/>
      </g>
     </g>
    </g>
    <g id="xtick_8">
     <g id="line2d_18">
      <g>
       <use xlink:href="#m37f48bab53" x="375.338119" y="149.532367" style="stroke: #000000; stroke-width: 0.8"/>
      </g>
     </g>
     <g id="text_16">
      <!-- 100 -->
      <g transform="translate(368.180307 162.230609) scale(0.075 -0.075)">
       <use xlink:href="#DejaVuSerif-14"/>
       <use xlink:href="#DejaVuSerif-13" transform="translate(63.625 0)"/>
       <use xlink:href="#DejaVuSerif-13" transform="translate(127.25 0)"/>
      </g>
     </g>
    </g>
    <g id="xtick_9">
     <g id="line2d_19">
      <g>
       <use xlink:href="#m37f48bab53" x="422.460578" y="149.532367" style="stroke: #000000; stroke-width: 0.8"/>
      </g>
     </g>
     <g id="text_17">
      <!-- 150 -->
      <g transform="translate(415.302765 162.230609) scale(0.075 -0.075)">
       <use xlink:href="#DejaVuSerif-14"/>
       <use xlink:href="#DejaVuSerif-18" transform="translate(63.625 0)"/>
       <use xlink:href="#DejaVuSerif-13" transform="translate(127.25 0)"/>
      </g>
     </g>
    </g>
    <g id="xtick_10">
     <g id="line2d_20">
      <g>
       <use xlink:href="#m37f48bab53" x="469.583036" y="149.532367" style="stroke: #000000; stroke-width: 0.8"/>
      </g>
     </g>
     <g id="text_18">
      <!-- 200 -->
      <g transform="translate(462.425223 162.230609) scale(0.075 -0.075)">
       <use xlink:href="#DejaVuSerif-15"/>
       <use xlink:href="#DejaVuSerif-13" transform="translate(63.625 0)"/>
       <use xlink:href="#DejaVuSerif-13" transform="translate(127.25 0)"/>
      </g>
     </g>
    </g>
    <g id="text_19">
     <!-- day -->
     <g transform="translate(372.373516 174.111117) scale(0.08 -0.08)">
      <use xlink:href="#DejaVuSerif-47"/>
      <use xlink:href="#DejaVuSerif-44" transform="translate(64.015625 0)"/>
      <use xlink:href="#DejaVuSerif-5c" transform="translate(123.640625 0)"/>
     </g>
    </g>
   </g>
   <g id="matplotlib.axis_4">
    <g id="ytick_6">
     <g id="line2d_21">
      <g>
       <use xlink:href="#md1f285a78b" x="271.244609" y="144.919346" style="stroke: #000000; stroke-width: 0.8"/>
      </g>
     </g>
    </g>
    <g id="ytick_7">
     <g id="line2d_22">
      <g>
       <use xlink:href="#md1f285a78b" x="271.244609" y="123.510336" style="stroke: #000000; stroke-width: 0.8"/>
      </g>
     </g>
    </g>
    <g id="ytick_8">
     <g id="line2d_23">
      <g>
       <use xlink:href="#md1f285a78b" x="271.244609" y="102.101326" style="stroke: #000000; stroke-width: 0.8"/>
      </g>
     </g>
    </g>
    <g id="ytick_9">
     <g id="line2d_24">
      <g>
       <use xlink:href="#md1f285a78b" x="271.244609" y="80.692316" style="stroke: #000000; stroke-width: 0.8"/>
      </g>
     </g>
    </g>
    <g id="ytick_10">
     <g id="line2d_25">
      <g>
       <use xlink:href="#md1f285a78b" x="271.244609" y="59.283306" style="stroke: #000000; stroke-width: 0.8"/>
      </g>
     </g>
    </g>
   </g>
   <g id="line2d_26">
    <path d="M 281.093203 144.916351 
L 283.920551 144.858426 
L 285.805449 144.571308 
L 286.747898 144.221196 
L 287.690347 143.483374 
L 288.632796 142.097307 
L 289.575246 139.907566 
L 290.517695 135.158417 
L 291.460144 125.633634 
L 292.402593 108.234807 
L 293.345042 84.557546 
L 294.287491 65.196008 
L 295.229941 55.37534 
L 296.17239 52.658912 
L 297.114839 55.297217 
L 298.057288 63.079701 
L 299.942186 82.4736 
L 300.884636 90.468691 
L 301.827085 97.406256 
L 303.711983 108.849973 
L 304.654432 113.522712 
L 305.596881 117.601976 
L 306.539331 121.147893 
L 307.48178 124.229532 
L 308.424229 126.91734 
L 309.366678 129.257545 
L 310.309127 131.293433 
L 312.194025 134.60476 
L 314.078924 137.108032 
L 315.963822 139.004571 
L 317.84872 140.442002 
L 319.733619 141.530444 
L 321.618517 142.354286 
L 323.503415 142.977852 
L 326.330763 143.640866 
L 329.15811 144.077463 
L 332.927907 144.437033 
L 338.582602 144.710202 
L 347.064645 144.859626 
L 366.856077 144.916139 
L 478.065078 144.919346 
L 478.065078 144.919346 
" clip-path="url(#pe2f786eed5)" style="fill: none; stroke: #1f77b4; stroke-width: 1.1; stroke-linecap: square"/>
   </g>
   <g id="line2d_27">
    <path d="M 281.093203 144.916351 
L 283.920551 144.858423 
L 285.805449 144.57087 
L 286.747898 144.219556 
L 287.690347 143.507673 
L 290.517695 139.993957 
L 291.460144 138.775647 
L 292.402593 137.912036 
L 293.345042 136.616702 
L 294.287491 134.932251 
L 295.229941 132.750275 
L 296.17239 130.266515 
L 298.057288 126.696751 
L 303.711983 109.478447 
L 304.654432 108.607474 
L 306.539331 106.478989 
L 307.48178 106.119747 
L 308.424229 105.231566 
L 310.309127 96.77039 
L 311.251576 94.821326 
L 312.194025 95.843451 
L 313.136475 100.093275 
L 314.078924 103.650813 
L 315.963822 109.543451 
L 316.906271 111.653785 
L 317.84872 114.060642 
L 320.676068 123.518314 
L 321.618517 126.28497 
L 322.560966 128.704836 
L 324.445865 132.643806 
L 326.330763 135.626277 
L 328.215661 137.885003 
L 330.10056 139.594525 
L 331.985458 140.886709 
L 333.870356 141.862222 
L 335.755255 142.604891 
L 338.582602 143.395135 
L 341.40995 143.915648 
L 345.179746 144.34433 
L 349.891992 144.632746 
L 357.431585 144.82528 
L 371.568323 144.907698 
L 447.906705 144.919345 
L 478.065078 144.919346 
L 478.065078 144.919346 
" clip-path="url(#pe2f786eed5)" style="fill: none; stroke: #ff7f0e; stroke-width: 1.1; stroke-linecap: square"/>
   </g>
   <g id="line2d_28">
    <path d="M 281.093203 144.916367 
L 300.884636 144.915057 
L 478.065078 144.919346 
L 478.065078 144.919346 
" clip-path="url(#pe2f786eed5)" style="fill: none; stroke: #2ca02c; stroke-width: 1.1; stroke-linecap: square"/>
   </g>
   <g id="line2d_29">
    <path d="M 281.093203 144.916351 
L 283.920551 144.858423 
L 285.805449 144.570874 
L 286.747898 144.219594 
L 287.690347 143.507996 
L 289.575246 141.413369 
L 291.460144 138.241419 
L 292.402593 136.170827 
L 293.345042 131.90409 
L 294.287491 123.524823 
L 295.229941 108.805881 
L 296.17239 89.329985 
L 297.114839 73.375622 
L 298.057288 61.14883 
L 298.999737 54.640506 
L 299.942186 55.152023 
L 300.884636 63.453468 
L 301.827085 73.834483 
L 302.769534 82.939542 
L 303.711983 90.846877 
L 304.654432 97.71032 
L 306.539331 109.078358 
L 307.48178 113.714873 
L 308.424229 117.750856 
L 309.366678 121.273715 
L 310.309127 124.340508 
L 311.251576 127.015454 
L 312.194025 129.342901 
L 313.136475 131.367688 
L 315.021373 134.660932 
L 316.906271 137.150466 
L 318.79117 139.036808 
L 320.676068 140.466403 
L 322.560966 141.548913 
L 324.445865 142.368265 
L 326.330763 142.988433 
L 329.15811 143.647834 
L 331.985458 144.082051 
L 335.755255 144.439662 
L 341.40995 144.711342 
L 349.891992 144.859951 
L 369.683424 144.916157 
L 478.065078 144.919346 
L 478.065078 144.919346 
" clip-path="url(#pe2f786eed5)" style="fill: none; stroke: #d62728; stroke-width: 1.1; stroke-linecap: square"/>
   </g>
   <g id="line2d_30">
    <path d="M 281.093203 144.916351 
L 283.920551 144.858428 
L 285.805449 144.571642 
L 286.747898 144.224252 
L 287.690347 143.502907 
L 288.632796 142.203826 
L 289.575246 140.275336 
L 290.517695 136.238448 
L 291.460144 128.720334 
L 292.402593 115.735341 
L 293.345042 99.05577 
L 294.287491 85.560343 
L 295.229941 76.495454 
L 296.17239 65.471818 
L 297.114839 57.886246 
L 298.057288 57.69906 
L 298.999737 64.197096 
L 300.884636 83.073585 
L 301.827085 90.972851 
L 302.769534 97.889414 
L 303.711983 103.982389 
L 304.654432 109.289154 
L 305.596881 113.899195 
L 306.539331 117.918134 
L 307.48178 121.417338 
L 308.424229 124.465686 
L 309.366678 127.124606 
L 310.309127 129.437777 
L 311.251576 131.450015 
L 313.136475 134.722246 
L 315.021373 137.196049 
L 316.906271 139.07311 
L 318.79117 140.494182 
L 320.676068 141.569939 
L 322.560966 142.38418 
L 324.445865 143.000479 
L 327.273212 143.655766 
L 330.10056 144.087275 
L 333.870356 144.442654 
L 339.525051 144.71264 
L 348.007094 144.860322 
L 367.798526 144.916176 
L 478.065078 144.919346 
L 478.065078 144.919346 
" clip-path="url(#pe2f786eed5)" style="fill: none; stroke: #9467bd; stroke-width: 1.1; stroke-linecap: square"/>
   </g>
   <g id="patch_6">
    <path d="M 271.244609 149.532367 
L 271.244609 48.045891 
" style="fill: none; stroke: #000000; stroke-width: 0.8; stroke-linejoin: miter; stroke-linecap: square"/>
   </g>
   <g id="patch_7">
    <path d="M 271.244609 149.532367 
L 487.913672 149.532367 
" style="fill: none; stroke: #000000; stroke-width: 0.8; stroke-linejoin: miter; stroke-linecap: square"/>
   </g>
   <g id="text_20">
    <!-- Air + land + water -->
    <g transform="translate(336.417813 42.045891) scale(0.09 -0.09)">
     <defs>
      <path id="DejaVuSerif-e" d="M 2931 4013 
L 2931 2259 
L 4684 2259 
L 4684 1753 
L 2931 1753 
L 2931 0 
L 2431 0 
L 2431 1753 
L 678 1753 
L 678 2259 
L 2431 2259 
L 2431 4013 
L 2931 4013 
z
" transform="scale(0.015625)"/>
      <path id="DejaVuSerif-5a" d="M 3072 3322 
L 3922 728 
L 4672 2988 
L 4191 2988 
L 4191 3322 
L 5394 3322 
L 5394 2988 
L 5025 2988 
L 4038 0 
L 3559 0 
L 2741 2484 
L 1919 0 
L 1459 0 
L 475 2988 
L 103 2988 
L 103 3322 
L 1606 3322 
L 1606 2988 
L 1069 2988 
L 1813 728 
L 2669 3322 
L 3072 3322 
z
" transform="scale(0.015625)"/>
     </defs>
     <use xlink:href="#DejaVuSerif-24"/>
     <use xlink:href="#DejaVuSerif-4c" transform="translate(72.21875 0)"/>
     <use xlink:href="#DejaVuSerif-55" transform="translate(104.203125 0)"/>
     <use xlink:href="#DejaVuSerif-3" transform="translate(152 0)"/>
     <use xlink:href="#DejaVuSerif-e" transform="translate(183.78125 0)"/>
     <use xlink:href="#DejaVuSerif-3" transform="translate(267.578125 0)"/>
     <use xlink:href="#DejaVuSerif-4f" transform="translate(299.359375 0)"/>
     <use xlink:href="#DejaVuSerif-44" transform="translate(331.34375 0)"/>
     <use xlink:href="#DejaVuSerif-51" transform="translate(390.96875 0)"/>
     <use xlink:href="#DejaVuSerif-47" transform="translate(455.375 0)"/>
     <use xlink:href="#DejaVuSerif-3" transform="translate(519.390625 0)"/>
     <use xlink:href="#DejaVuSerif-e" transform="translate(551.171875 0)"/>
     <use xlink:href="#DejaVuSerif-3" transform="translate(634.96875 0)"/>
     <use xlink:href="#DejaVuSerif-5a" transform="translate(666.75 0)"/>
     <use xlink:href="#DejaVuSerif-44" transform="translate(752.34375 0)"/>
     <use xlink:href="#DejaVuSerif-57" transform="translate(811.96875 0)"/>
     <use xlink:href="#DejaVuSerif-48" transform="translate(852.15625 0)"/>
     <use xlink:href="#DejaVuSerif-55" transform="translate(911.34375 0)"/>
    </g>
   </g>
   <g id="legend_1">
    <g id="text_21">
     <!-- scenario -->
     <g transform="translate(448.072422 59.524641) scale(0.08 -0.08)">
      <use xlink:href="#DejaVuSerif-56"/>
      <use xlink:href="#DejaVuSerif-46" transform="translate(51.3125 0)"/>
      <use xlink:href="#DejaVuSerif-48" transform="translate(107.3125 0)"/>
      <use xlink:href="#DejaVuSerif-51" transform="translate(166.5 0)"/>
      <use xlink:href="#DejaVuSerif-44" transform="translate(230.90625 0)"/>
      <use xlink:href="#DejaVuSerif-55" transform="translate(290.53125 0)"/>
      <use xlink:href="#DejaVuSerif-4c" transform="translate(338.328125 0)"/>
      <use xlink:href="#DejaVuSerif-52" transform="translate(370.3125 0)"/>
     </g>
    </g>
    <g id="line2d_31">
     <path d="M 452.579141 66.905578 
L 458.579141 66.905578 
L 464.579141 66.905578 
" style="fill: none; stroke: #1f77b4; stroke-width: 1.1; stroke-linecap: square"/>
    </g>
    <g id="text_22">
     <!-- A -->
     <g transform="translate(469.379141 69.005578) scale(0.06 -0.06)">
      <use xlink:href="#DejaVuSerif-24"/>
     </g>
    </g>
    <g id="line2d_32">
     <path d="M 452.579141 75.906047 
L 458.579141 75.906047 
L 464.579141 75.906047 
" style="fill: none; stroke: #ff7f0e; stroke-width: 1.1; stroke-linecap: square"/>
    </g>
    <g id="text_23">
     <!-- B -->
     <g transform="translate(469.379141 78.006047) scale(0.06 -0.06)">
      <defs>
       <path id="DejaVuSerif-25" d="M 1581 331 
L 2516 331 
Q 3078 331 3337 575 
Q 3597 819 3597 1350 
Q 3597 1878 3339 2120 
Q 3081 2363 2516 2363 
L 1581 2363 
L 1581 331 
z
M 1581 2694 
L 2375 2694 
Q 2888 2694 3123 2891 
Q 3359 3088 3359 3513 
Q 3359 3941 3123 4136 
Q 2888 4331 2375 4331 
L 1581 4331 
L 1581 2694 
z
M 353 0 
L 353 331 
L 947 331 
L 947 4331 
L 353 4331 
L 353 4666 
L 2656 4666 
Q 3363 4666 3720 4377 
Q 4078 4088 4078 3513 
Q 4078 3097 3829 2850 
Q 3581 2603 3103 2547 
Q 3697 2472 4005 2167 
Q 4313 1863 4313 1350 
Q 4313 656 3875 328 
Q 3438 0 2509 0 
L 353 0 
z
" transform="scale(0.015625)"/>
      </defs>
      <use xlink:href="#DejaVuSerif-25"/>
     </g>
    </g>
    <g id="line2d_33">
     <path d="M 452.579141 84.906516 
L 458.579141 84.906516 
L 464.579141 84.906516 
" style="fill: none; stroke: #2ca02c; stroke-width: 1.1; stroke-linecap: square"/>
    </g>
    <g id="text_24">
     <!-- C -->
     <g transform="translate(469.379141 87.006516) scale(0.06 -0.06)">
      <defs>
       <path id="DejaVuSerif-26" d="M 4513 1234 
Q 4306 581 3820 245 
Q 3334 -91 2591 -91 
Q 2134 -91 1743 65 
Q 1353 222 1050 525 
Q 700 875 529 1320 
Q 359 1766 359 2328 
Q 359 3416 987 4083 
Q 1616 4750 2644 4750 
Q 3025 4750 3456 4650 
Q 3888 4550 4384 4347 
L 4384 3272 
L 4031 3272 
Q 3916 3859 3567 4137 
Q 3219 4416 2591 4416 
Q 1844 4416 1459 3886 
Q 1075 3356 1075 2328 
Q 1075 1303 1459 773 
Q 1844 244 2591 244 
Q 3113 244 3450 492 
Q 3788 741 3938 1234 
L 4513 1234 
z
" transform="scale(0.015625)"/>
      </defs>
      <use xlink:href="#DejaVuSerif-26"/>
     </g>
    </g>
    <g id="line2d_34">
     <path d="M 452.579141 93.906984 
L 458.579141 93.906984 
L 464.579141 93.906984 
" style="fill: none; stroke: #d62728; stroke-width: 1.1; stroke-linecap: square"/>
    </g>
    <g id="text_25">
     <!-- D1 -->
     <g transform="translate(469.379141 96.006984) scale(0.06 -0.06)">
      <defs>
       <path id="DejaVuSerif-27" d="M 1581 331 
L 2163 331 
Q 3072 331 3558 850 
Q 4044 1369 4044 2338 
Q 4044 3306 3559 3818 
Q 3075 4331 2163 4331 
L 1581 4331 
L 1581 331 
z
M 353 0 
L 353 331 
L 947 331 
L 947 4331 
L 353 4331 
L 353 4666 
L 2209 4666 
Q 3416 4666 4089 4050 
Q 4763 3434 4763 2338 
Q 4763 1238 4088 619 
Q 3413 0 2209 0 
L 353 0 
z
" transform="scale(0.015625)"/>
      </defs>
      <use xlink:href="#DejaVuSerif-27"/>
      <use xlink:href="#DejaVuSerif-14" transform="translate(80.171875 0)"/>
     </g>
    </g>
    <g id="line2d_35">
     <path d="M 452.579141 102.907453 
L 458.579141 102.907453 
L 464.579141 102.907453 
" style="fill: none; stroke: #9467bd; stroke-width: 1.1; stroke-linecap: square"/>
    </g>
    <g id="text_26">
     <!-- D2 -->
     <g transform="translate(469.379141 105.007453) scale(0.06 -0.06)">
      <use xlink:href="#DejaVuSerif-27"/>
      <use xlink:href="#DejaVuSerif-15" transform="translate(80.171875 0)"/>
     </g>
    </g>
   </g>
  </g>
  <g id="text_27">
   <!-- Interdiction: grounding flights only contains it when air is the sole carrier -->
   <g transform="translate(75.653203 8.278594) scale(0.09 -0.09)">
    <defs>
     <path id="DejaVuSerif-2c" d="M 1581 331 
L 2175 331 
L 2175 0 
L 353 0 
L 353 331 
L 947 331 
L 947 4331 
L 353 4331 
L 353 4666 
L 2175 4666 
L 2175 4331 
L 1581 4331 
L 1581 331 
z
" transform="scale(0.015625)"/>
     <path id="DejaVuSerif-1d" d="M 666 325 
Q 666 500 786 622 
Q 906 744 1081 744 
Q 1256 744 1376 622 
Q 1497 500 1497 325 
Q 1497 150 1378 29 
Q 1259 -91 1081 -91 
Q 903 -91 784 29 
Q 666 150 666 325 
z
M 666 2363 
Q 666 2538 786 2658 
Q 906 2778 1081 2778 
Q 1259 2778 1378 2659 
Q 1497 2541 1497 2363 
Q 1497 2184 1378 2065 
Q 1259 1947 1081 1947 
Q 906 1947 786 2067 
Q 666 2188 666 2363 
z
" transform="scale(0.015625)"/>
     <path id="DejaVuSerif-4a" d="M 3359 2988 
L 3359 72 
Q 3359 -644 2965 -1033 
Q 2572 -1422 1844 -1422 
Q 1516 -1422 1216 -1362 
Q 916 -1303 641 -1184 
L 641 -488 
L 941 -488 
Q 997 -813 1206 -963 
Q 1416 -1113 1806 -1113 
Q 2313 -1113 2548 -827 
Q 2784 -541 2784 72 
L 2784 519 
Q 2616 206 2355 57 
Q 2094 -91 1709 -91 
Q 1097 -91 708 395 
Q 319 881 319 1663 
Q 319 2444 706 2928 
Q 1094 3413 1709 3413 
Q 2094 3413 2355 3264 
Q 2616 3116 2784 2803 
L 2784 3322 
L 3909 3322 
L 3909 2988 
L 3359 2988 
z
M 2784 1825 
Q 2784 2422 2554 2737 
Q 2325 3053 1888 3053 
Q 1444 3053 1217 2703 
Q 991 2353 991 1663 
Q 991 975 1217 622 
Q 1444 269 1888 269 
Q 2325 269 2554 583 
Q 2784 897 2784 1497 
L 2784 1825 
z
" transform="scale(0.015625)"/>
     <path id="DejaVuSerif-58" d="M 2266 3322 
L 3341 3322 
L 3341 331 
L 3884 331 
L 3884 0 
L 2766 0 
L 2766 588 
Q 2606 256 2353 82 
Q 2100 -91 1766 -91 
Q 1213 -91 952 223 
Q 691 538 691 1209 
L 691 2988 
L 172 2988 
L 172 3322 
L 1269 3322 
L 1269 1388 
Q 1269 781 1417 556 
Q 1566 331 1947 331 
Q 2347 331 2556 625 
Q 2766 919 2766 1478 
L 2766 2988 
L 2266 2988 
L 2266 3322 
z
" transform="scale(0.015625)"/>
     <path id="DejaVuSerif-cf1" d="M 2291 4863 
L 3531 4863 
L 3531 331 
L 4078 331 
L 4078 0 
L 2406 0 
L 2406 331 
L 2956 331 
L 2956 4531 
L 2284 4531 
Q 1775 4531 1565 4328 
Q 1356 4125 1356 3634 
L 1356 3322 
L 2278 3322 
L 2278 2988 
L 1356 2988 
L 1356 331 
L 1900 331 
L 1900 0 
L 231 0 
L 231 331 
L 781 331 
L 781 2988 
L 231 2988 
L 231 3322 
L 781 3322 
L 781 3622 
Q 781 4250 1154 4556 
Q 1528 4863 2291 4863 
z
" transform="scale(0.015625)"/>
     <path id="DejaVuSerif-4b" d="M 263 0 
L 263 331 
L 781 331 
L 781 4531 
L 231 4531 
L 231 4863 
L 1356 4863 
L 1356 2731 
Q 1516 3069 1770 3241 
Q 2025 3413 2363 3413 
Q 2913 3413 3172 3097 
Q 3431 2781 3431 2113 
L 3431 331 
L 3944 331 
L 3944 0 
L 2356 0 
L 2356 331 
L 2853 331 
L 2853 1931 
Q 2853 2541 2704 2764 
Q 2556 2988 2175 2988 
Q 1775 2988 1565 2697 
Q 1356 2406 1356 1850 
L 1356 331 
L 1856 331 
L 1856 0 
L 263 0 
z
" transform="scale(0.015625)"/>
    </defs>
    <use xlink:href="#DejaVuSerif-2c"/>
    <use xlink:href="#DejaVuSerif-51" transform="translate(39.5 0)"/>
    <use xlink:href="#DejaVuSerif-57" transform="translate(103.90625 0)"/>
    <use xlink:href="#DejaVuSerif-48" transform="translate(144.09375 0)"/>
    <use xlink:href="#DejaVuSerif-55" transform="translate(203.28125 0)"/>
    <use xlink:href="#DejaVuSerif-47" transform="translate(251.078125 0)"/>
    <use xlink:href="#DejaVuSerif-4c" transform="translate(315.09375 0)"/>
    <use xlink:href="#DejaVuSerif-46" transform="translate(347.078125 0)"/>
    <use xlink:href="#DejaVuSerif-57" transform="translate(403.078125 0)"/>
    <use xlink:href="#DejaVuSerif-4c" transform="translate(443.265625 0)"/>
    <use xlink:href="#DejaVuSerif-52" transform="translate(475.25 0)"/>
    <use xlink:href="#DejaVuSerif-51" transform="translate(535.453125 0)"/>
    <use xlink:href="#DejaVuSerif-1d" transform="translate(599.859375 0)"/>
    <use xlink:href="#DejaVuSerif-3" transform="translate(633.546875 0)"/>
    <use xlink:href="#DejaVuSerif-4a" transform="translate(665.328125 0)"/>
    <use xlink:href="#DejaVuSerif-55" transform="translate(729.34375 0)"/>
    <use xlink:href="#DejaVuSerif-52" transform="translate(777.140625 0)"/>
    <use xlink:href="#DejaVuSerif-58" transform="translate(837.34375 0)"/>
    <use xlink:href="#DejaVuSerif-51" transform="translate(901.75 0)"/>
    <use xlink:href="#DejaVuSerif-47" transform="translate(966.15625 0)"/>
    <use xlink:href="#DejaVuSerif-4c" transform="translate(1030.171875 0)"/>
    <use xlink:href="#DejaVuSerif-51" transform="translate(1062.15625 0)"/>
    <use xlink:href="#DejaVuSerif-4a" transform="translate(1126.5625 0)"/>
    <use xlink:href="#DejaVuSerif-3" transform="translate(1190.578125 0)"/>
    <use xlink:href="#DejaVuSerif-cf1" transform="translate(1222.359375 0)"/>
    <use xlink:href="#DejaVuSerif-4c" transform="translate(1289.0625 0)"/>
    <use xlink:href="#DejaVuSerif-4a" transform="translate(1321.046875 0)"/>
    <use xlink:href="#DejaVuSerif-4b" transform="translate(1385.0625 0)"/>
    <use xlink:href="#DejaVuSerif-57" transform="translate(1449.46875 0)"/>
    <use xlink:href="#DejaVuSerif-56" transform="translate(1489.65625 0)"/>
    <use xlink:href="#DejaVuSerif-3" transform="translate(1540.96875 0)"/>
    <use xlink:href="#DejaVuSerif-52" transform="translate(1572.75 0)"/>
    <use xlink:href="#DejaVuSerif-51" transform="translate(1632.953125 0)"/>
    <use xlink:href="#DejaVuSerif-4f" transform="translate(1697.359375 0)"/>
    <use xlink:href="#DejaVuSerif-5c" transform="translate(1729.34375 0)"/>
    <use xlink:href="#DejaVuSerif-3" transform="translate(1785.84375 0)"/>
    <use xlink:href="#DejaVuSerif-46" transform="translate(1817.625 0)"/>
    <use xlink:href="#DejaVuSerif-52" transform="translate(1873.625 0)"/>
    <use xlink:href="#DejaVuSerif-51" transform="translate(1933.828125 0)"/>
    <use xlink:href="#DejaVuSerif-57" transform="translate(1998.234375 0)"/>
    <use xlink:href="#DejaVuSerif-44" transform="translate(2038.421875 0)"/>
    <use xlink:href="#DejaVuSerif-4c" transform="translate(2098.046875 0)"/>
    <use xlink:href="#DejaVuSerif-51" transform="translate(2130.03125 0)"/>
    <use xlink:href="#DejaVuSerif-56" transform="translate(2194.4375 0)"/>
    <use xlink:href="#DejaVuSerif-3" transform="translate(2245.75 0)"/>
    <use xlink:href="#DejaVuSerif-4c" transform="translate(2277.53125 0)"/>
    <use xlink:href="#DejaVuSerif-57" transform="translate(2309.515625 0)"/>
    <use xlink:href="#DejaVuSerif-3" transform="translate(2349.703125 0)"/>
    <use xlink:href="#DejaVuSerif-5a" transform="translate(2381.484375 0)"/>
    <use xlink:href="#DejaVuSerif-4b" transform="translate(2467.078125 0)"/>
    <use xlink:href="#DejaVuSerif-48" transform="translate(2531.484375 0)"/>
    <use xlink:href="#DejaVuSerif-51" transform="translate(2590.671875 0)"/>
    <use xlink:href="#DejaVuSerif-3" transform="translate(2655.078125 0)"/>
    <use xlink:href="#DejaVuSerif-44" transform="translate(2686.859375 0)"/>
    <use xlink:href="#DejaVuSerif-4c" transform="translate(2746.484375 0)"/>
    <use xlink:href="#DejaVuSerif-55" transform="translate(2778.46875 0)"/>
    <use xlink:href="#DejaVuSerif-3" transform="translate(2826.265625 0)"/>
    <use xlink:href="#DejaVuSerif-4c" transform="translate(2858.046875 0)"/>
    <use xlink:href="#DejaVuSerif-56" transform="translate(2890.03125 0)"/>
    <use xlink:href="#DejaVuSerif-3" transform="translate(2941.34375 0)"/>
    <use xlink:href="#DejaVuSerif-57" transform="translate(2973.125 0)"/>
    <use xlink:href="#DejaVuSerif-4b" transform="translate(3013.3125 0)"/>
    <use xlink:href="#DejaVuSerif-48" transform="translate(3077.71875 0)"/>
    <use xlink:href="#DejaVuSerif-3" transform="translate(3136.90625 0)"/>
    <use xlink:href="#DejaVuSerif-56" transform="translate(3168.6875 0)"/>
    <use xlink:href="#DejaVuSerif-52" transform="translate(3220 0)"/>
    <use xlink:href="#DejaVuSerif-4f" transform="translate(3280.203125 0)"/>
    <use xlink:href="#DejaVuSerif-48" transform="translate(3312.1875 0)"/>
    <use xlink:href="#DejaVuSerif-3" transform="translate(3371.375 0)"/>
    <use xlink:href="#DejaVuSerif-46" transform="translate(3403.15625 0)"/>
    <use xlink:href="#DejaVuSerif-44" transform="translate(3459.15625 0)"/>
    <use xlink:href="#DejaVuSerif-55" transform="translate(3518.78125 0)"/>
    <use xlink:href="#DejaVuSerif-55" transform="translate(3566.578125 0)"/>
    <use xlink:href="#DejaVuSerif-4c" transform="translate(3614.375 0)"/>
    <use xlink:href="#DejaVuSerif-48" transform="translate(3646.359375 0)"/>
    <use xlink:href="#DejaVuSerif-55" transform="translate(3705.546875 0)"/>
   </g>
  </g>
 </g>
 <defs>
  <clipPath id="pb0b6831fa1">
   <rect x="42.435547" y="48.045891" width="216.669063" height="101.486477"/>
  </clipPath>
  <clipPath id="pe2f786eed5">
   <rect x="271.244609" y="48.045891" width="216.669063" height="101.486477"/>
  </clipPath>
 </defs>
</svg>
