<?xml version="1.0" encoding="utf-8" standalone="no"?>
<!DOCTYPE svg PUBLIC "-//W3C//DTD SVG 1.1//EN"
  "http://www.w3.org/Graphics/SVG/1.1/DTD/svg11.dtd">
<svg xmlns:xlink="http://www.w3.org/1999/xlink" width="489.068804pt" height="165.378984pt" viewBox="0 0 489.068804 165.378984" xmlns="http://www.w3.org/2000/svg" version="1.1">
 <metadata>
  <rdf:RDF xmlns:dc="http://purl.org/dc/elements/1.1/" xmlns:cc="http://creativecommons.org/ns#" xmlns:rdf="http://www.w3.org/1999/02/22-rdf-syntax-ns#">
   <cc:Work>
    <dc:type rdf:resource="http://purl.org/dc/dcmitype/StillImage"/>
    <dc:date>2026-06-30T17:12:54.672350</dc:date>
    <dc:format>image/svg+xml</dc:format>
    <dc:creator>
     <cc:Agent>
      <dc:title>Matplotlib v3.11.0, https://matplotlib.org/</dc:title>
     </cc:Agent>
    </dc:creator>
   </cc:Work>
  </rdf:RDF>
 </metadata>
 <defs>
  <style type="text/css">*{stroke-linejoin: round; stroke-linecap: butt}</style>
 </defs>
 <g id="figure_1">
  <g id="patch_1">
   <path d="M 0 165.378984 
L 489.068804 165.378984 
L 489.068804 0 
L 0 0 
z
" style="fill: #ffffff"/>
  </g>
  <g id="axes_1">
   <g id="patch_2">
    <path d="M 57.788828 137.437773 
L 239.335205 137.437773 
L 239.335205 25.981934 
L 57.788828 25.981934 
z
" style="fill: #ffffff"/>
   </g>
   <g id="patch_3">
    <path d="M 57.788828 132.371599 
L 230.690139 132.371599 
L 230.690139 111.040338 
L 57.788828 111.040338 
z
" clip-path="url(#p3f25c5a223)" style="fill: #9ecae1"/>
   </g>
   <g id="patch_4">
    <path d="M 57.788828 105.707522 
L 214.248333 105.707522 
L 214.248333 84.376261 
L 57.788828 84.376261 
z
" clip-path="url(#p3f25c5a223)" style="fill: #9ecae1"/>
   </g>
   <g id="patch_5">
    <path d="M 57.788828 79.043446 
L 203.516349 79.043446 
L 203.516349 57.712185 
L 57.788828 57.712185 
z
" clip-path="url(#p3f25c5a223)" style="fill: #9ecae1"/>
   </g>
   <g id="patch_6">
    <path d="M 57.788828 52.379369 
L 200.674312 52.379369 
L 200.674312 31.048108 
L 57.788828 31.048108 
z
" clip-path="url(#p3f25c5a223)" style="fill: #08519c"/>
   </g>
   <g id="matplotlib.axis_1">
    <g id="xtick_1">
     <g id="line2d_1">
      <defs>
       <path id="m02eb913279" d="M 0 0 
L 0 3.5 
" style="stroke: #000000; stroke-width: 0.8"/>
      </defs>
      <g>
       <use xlink:href="#m02eb913279" x="57.788828" y="137.437773" style="stroke: #000000; stroke-width: 0.8"/>
      </g>
     </g>
     <g id="text_1">
      <!-- 0k -->
      <g transform="translate(53.130625 150.136602) scale(0.075 -0.075)">
       <defs>
        <path id="DejaVuSerif-13" d="M 2034 219 
Q 2513 219 2750 744 
Q 2988 1269 2988 2328 
Q 2988 3391 2750 3916 
Q 2513 4441 2034 4441 
Q 1556 4441 1318 3916 
Q 1081 3391 1081 2328 
Q 1081 1269 1318 744 
Q 1556 219 2034 219 
z
M 2034 -91 
Q 1275 -91 848 546 
Q 422 1184 422 2328 
Q 422 3475 848 4112 
Q 1275 4750 2034 4750 
Q 2797 4750 3222 4112 
Q 3647 3475 3647 2328 
Q 3647 1184 3222 546 
Q 2797 -91 2034 -91 
z
" transform="scale(0.015625)"/>
        <path id="DejaVuSerif-4e" d="M 1831 0 
L 219 0 
L 219 331 
L 738 331 
L 738 4531 
L 184 4531 
L 184 4863 
L 1313 4863 
L 1313 1697 
L 2713 2988 
L 2234 2988 
L 2234 3322 
L 3738 3322 
L 3738 2988 
L 3169 2988 
L 2181 2075 
L 3444 331 
L 3922 331 
L 3922 0 
L 2284 0 
L 2284 331 
L 2759 331 
L 1766 1697 
L 1313 1275 
L 1313 331 
L 1831 331 
L 1831 0 
z
" transform="scale(0.015625)"/>
       </defs>
       <use xlink:href="#DejaVuSerif-13"/>
       <use xlink:href="#DejaVuSerif-4e" transform="translate(63.625 0)"/>
      </g>
     </g>
    </g>
    <g id="xtick_2">
     <g id="line2d_2">
      <g>
       <use xlink:href="#m02eb913279" x="81.135485" y="137.437773" style="stroke: #000000; stroke-width: 0.8"/>
      </g>
     </g>
     <g id="text_2">
      <!-- 20M -->
      <g transform="translate(72.523962 150.136016) scale(0.075 -0.075)">
       <defs>
        <path id="DejaVuSerif-15" d="M 819 3553 
L 469 3553 
L 469 4384 
Q 803 4563 1142 4656 
Q 1481 4750 1806 4750 
Q 2534 4750 2956 4397 
Q 3378 4044 3378 3438 
Q 3378 2753 2422 1800 
Q 2347 1728 2309 1691 
L 1131 513 
L 3078 513 
L 3078 1088 
L 3444 1088 
L 3444 0 
L 434 0 
L 434 341 
L 1850 1753 
Q 2319 2222 2519 2614 
Q 2719 3006 2719 3438 
Q 2719 3909 2473 4175 
Q 2228 4441 1797 4441 
Q 1350 4441 1106 4219 
Q 863 3997 819 3553 
z
" transform="scale(0.015625)"/>
        <path id="DejaVuSerif-30" d="M 353 0 
L 353 331 
L 947 331 
L 947 4331 
L 319 4331 
L 319 4666 
L 1678 4666 
L 3316 1344 
L 4953 4666 
L 6228 4666 
L 6228 4331 
L 5606 4331 
L 5606 331 
L 6203 331 
L 6203 0 
L 4378 0 
L 4378 331 
L 4972 331 
L 4972 3938 
L 3372 684 
L 2931 684 
L 1331 3938 
L 1331 331 
L 1925 331 
L 1925 0 
L 353 0 
z
" transform="scale(0.015625)"/>
       </defs>
       <use xlink:href="#DejaVuSerif-15"/>
       <use xlink:href="#DejaVuSerif-13" transform="translate(63.625 0)"/>
       <use xlink:href="#DejaVuSerif-30" transform="translate(127.25 0)"/>
      </g>
     </g>
    </g>
    <g id="xtick_3">
     <g id="line2d_3">
      <g>
       <use xlink:href="#m02eb913279" x="104.482143" y="137.437773" style="stroke: #000000; stroke-width: 0.8"/>
      </g>
     </g>
     <g id="text_3">
      <!-- 40M -->
      <g transform="translate(95.870619 150.136016) scale(0.075 -0.075)">
       <defs>
        <path id="DejaVuSerif-17" d="M 2234 1581 
L 2234 4063 
L 641 1581 
L 2234 1581 
z
M 3609 0 
L 1484 0 
L 1484 331 
L 2234 331 
L 2234 1247 
L 197 1247 
L 197 1588 
L 2241 4750 
L 2859 4750 
L 2859 1581 
L 3750 1581 
L 3750 1247 
L 2859 1247 
L 2859 331 
L 3609 331 
L 3609 0 
z
" transform="scale(0.015625)"/>
       </defs>
       <use xlink:href="#DejaVuSerif-17"/>
       <use xlink:href="#DejaVuSerif-13" transform="translate(63.625 0)"/>
       <use xlink:href="#DejaVuSerif-30" transform="translate(127.25 0)"/>
      </g>
     </g>
    </g>
    <g id="xtick_4">
     <g id="line2d_4">
      <g>
       <use xlink:href="#m02eb913279" x="127.8288" y="137.437773" style="stroke: #000000; stroke-width: 0.8"/>
      </g>
     </g>
     <g id="text_4">
      <!-- 60M -->
      <g transform="translate(119.217276 150.136016) scale(0.075 -0.075)">
       <defs>
        <path id="DejaVuSerif-19" d="M 2094 219 
Q 2534 219 2771 542 
Q 3009 866 3009 1472 
Q 3009 2078 2771 2401 
Q 2534 2725 2094 2725 
Q 1647 2725 1412 2412 
Q 1178 2100 1178 1509 
Q 1178 888 1415 553 
Q 1653 219 2094 219 
z
M 1075 2569 
Q 1288 2803 1556 2918 
Q 1825 3034 2163 3034 
Q 2859 3034 3264 2615 
Q 3669 2197 3669 1472 
Q 3669 763 3233 336 
Q 2797 -91 2069 -91 
Q 1278 -91 853 498 
Q 428 1088 428 2181 
Q 428 3406 931 4078 
Q 1434 4750 2350 4750 
Q 2597 4750 2869 4703 
Q 3141 4656 3425 4563 
L 3425 3794 
L 3072 3794 
Q 3034 4109 2831 4275 
Q 2628 4441 2284 4441 
Q 1678 4441 1381 3981 
Q 1084 3522 1075 2569 
z
" transform="scale(0.015625)"/>
       </defs>
       <use xlink:href="#DejaVuSerif-19"/>
       <use xlink:href="#DejaVuSerif-13" transform="translate(63.625 0)"/>
       <use xlink:href="#DejaVuSerif-30" transform="translate(127.25 0)"/>
      </g>
     </g>
    </g>
    <g id="xtick_5">
     <g id="line2d_5">
      <g>
       <use xlink:href="#m02eb913279" x="151.175457" y="137.437773" style="stroke: #000000; stroke-width: 0.8"/>
      </g>
     </g>
     <g id="text_5">
      <!-- 80M -->
      <g transform="translate(142.563934 150.136016) scale(0.075 -0.075)">
       <defs>
        <path id="DejaVuSerif-1b" d="M 2981 1275 
Q 2981 1775 2732 2051 
Q 2484 2328 2034 2328 
Q 1584 2328 1336 2051 
Q 1088 1775 1088 1275 
Q 1088 772 1336 495 
Q 1584 219 2034 219 
Q 2484 219 2732 495 
Q 2981 772 2981 1275 
z
M 2853 3541 
Q 2853 3966 2637 4203 
Q 2422 4441 2034 4441 
Q 1650 4441 1433 4203 
Q 1216 3966 1216 3541 
Q 1216 3113 1433 2875 
Q 1650 2638 2034 2638 
Q 2422 2638 2637 2875 
Q 2853 3113 2853 3541 
z
M 2516 2484 
Q 3047 2413 3344 2092 
Q 3641 1772 3641 1275 
Q 3641 619 3225 264 
Q 2809 -91 2034 -91 
Q 1263 -91 845 264 
Q 428 619 428 1275 
Q 428 1772 725 2092 
Q 1022 2413 1556 2484 
Q 1084 2569 832 2842 
Q 581 3116 581 3541 
Q 581 4103 968 4426 
Q 1356 4750 2034 4750 
Q 2713 4750 3100 4426 
Q 3488 4103 3488 3541 
Q 3488 3116 3236 2842 
Q 2984 2569 2516 2484 
z
" transform="scale(0.015625)"/>
       </defs>
       <use xlink:href="#DejaVuSerif-1b"/>
       <use xlink:href="#DejaVuSerif-13" transform="translate(63.625 0)"/>
       <use xlink:href="#DejaVuSerif-30" transform="translate(127.25 0)"/>
      </g>
     </g>
    </g>
    <g id="xtick_6">
     <g id="line2d_6">
      <g>
       <use xlink:href="#m02eb913279" x="174.522114" y="137.437773" style="stroke: #000000; stroke-width: 0.8"/>
      </g>
     </g>
     <g id="text_6">
      <!-- 100M -->
      <g transform="translate(163.524653 150.136016) scale(0.075 -0.075)">
       <defs>
        <path id="DejaVuSerif-14" d="M 909 0 
L 909 331 
L 1722 331 
L 1722 4213 
L 781 3603 
L 781 4013 
L 1919 4750 
L 2350 4750 
L 2350 331 
L 3163 331 
L 3163 0 
L 909 0 
z
" transform="scale(0.015625)"/>
       </defs>
       <use xlink:href="#DejaVuSerif-14"/>
       <use xlink:href="#DejaVuSerif-13" transform="translate(63.625 0)"/>
       <use xlink:href="#DejaVuSerif-13" transform="translate(127.25 0)"/>
       <use xlink:href="#DejaVuSerif-30" transform="translate(190.875 0)"/>
      </g>
     </g>
    </g>
    <g id="xtick_7">
     <g id="line2d_7">
      <g>
       <use xlink:href="#m02eb913279" x="197.868771" y="137.437773" style="stroke: #000000; stroke-width: 0.8"/>
      </g>
     </g>
     <g id="text_7">
      <!-- 120M -->
      <g transform="translate(186.871311 150.136016) scale(0.075 -0.075)">
       <use xlink:href="#DejaVuSerif-14"/>
       <use xlink:href="#DejaVuSerif-15" transform="translate(63.625 0)"/>
       <use xlink:href="#DejaVuSerif-13" transform="translate(127.25 0)"/>
       <use xlink:href="#DejaVuSerif-30" transform="translate(190.875 0)"/>
      </g>
     </g>
    </g>
    <g id="xtick_8">
     <g id="line2d_8">
      <g>
       <use xlink:href="#m02eb913279" x="221.215429" y="137.437773" style="stroke: #000000; stroke-width: 0.8"/>
      </g>
     </g>
     <g id="text_8">
      <!-- 140M -->
      <g transform="translate(210.217968 150.136016) scale(0.075 -0.075)">
       <use xlink:href="#DejaVuSerif-14"/>
       <use xlink:href="#DejaVuSerif-17" transform="translate(63.625 0)"/>
       <use xlink:href="#DejaVuSerif-13" transform="translate(127.25 0)"/>
       <use xlink:href="#DejaVuSerif-30" transform="translate(190.875 0)"/>
      </g>
     </g>
    </g>
    <g id="text_9">
     <!-- mean peak (anchor disease) -->
     <g transform="translate(91.605767 162.017109) scale(0.08 -0.08)">
      <defs>
       <path id="DejaVuSerif-50" d="M 3316 2675 
Q 3481 3041 3739 3227 
Q 3997 3413 4341 3413 
Q 4863 3413 5119 3089 
Q 5375 2766 5375 2113 
L 5375 331 
L 5894 331 
L 5894 0 
L 4300 0 
L 4300 331 
L 4800 331 
L 4800 2047 
Q 4800 2556 4650 2772 
Q 4500 2988 4153 2988 
Q 3769 2988 3567 2697 
Q 3366 2406 3366 1850 
L 3366 331 
L 3866 331 
L 3866 0 
L 2291 0 
L 2291 331 
L 2791 331 
L 2791 2069 
Q 2791 2566 2641 2777 
Q 2491 2988 2144 2988 
Q 1759 2988 1557 2697 
Q 1356 2406 1356 1850 
L 1356 331 
L 1856 331 
L 1856 0 
L 263 0 
L 263 331 
L 781 331 
L 781 2994 
L 231 2994 
L 231 3322 
L 1356 3322 
L 1356 2731 
Q 1516 3063 1762 3238 
Q 2009 3413 2322 3413 
Q 2709 3413 2968 3220 
Q 3228 3028 3316 2675 
z
" transform="scale(0.015625)"/>
       <path id="DejaVuSerif-48" d="M 3469 1600 
L 991 1600 
L 991 1575 
Q 991 903 1244 561 
Q 1497 219 1991 219 
Q 2369 219 2611 417 
Q 2853 616 2950 1006 
L 3413 1006 
Q 3275 459 2904 184 
Q 2534 -91 1931 -91 
Q 1203 -91 761 389 
Q 319 869 319 1663 
Q 319 2450 753 2931 
Q 1188 3413 1894 3413 
Q 2647 3413 3050 2948 
Q 3453 2484 3469 1600 
z
M 2791 1931 
Q 2772 2513 2545 2808 
Q 2319 3103 1894 3103 
Q 1497 3103 1269 2806 
Q 1041 2509 991 1931 
L 2791 1931 
z
" transform="scale(0.015625)"/>
       <path id="DejaVuSerif-44" d="M 2547 1044 
L 2547 1747 
L 1806 1747 
Q 1378 1747 1168 1562 
Q 959 1378 959 997 
Q 959 650 1171 447 
Q 1384 244 1747 244 
Q 2106 244 2326 466 
Q 2547 688 2547 1044 
z
M 3122 2075 
L 3122 331 
L 3634 331 
L 3634 0 
L 2547 0 
L 2547 359 
Q 2356 128 2106 18 
Q 1856 -91 1522 -91 
Q 969 -91 644 203 
Q 319 497 319 997 
Q 319 1513 691 1797 
Q 1063 2081 1741 2081 
L 2547 2081 
L 2547 2309 
Q 2547 2688 2317 2895 
Q 2088 3103 1672 3103 
Q 1328 3103 1125 2947 
Q 922 2791 872 2484 
L 575 2484 
L 575 3156 
Q 875 3284 1158 3348 
Q 1441 3413 1709 3413 
Q 2400 3413 2761 3070 
Q 3122 2728 3122 2075 
z
" transform="scale(0.015625)"/>
       <path id="DejaVuSerif-51" d="M 263 0 
L 263 331 
L 781 331 
L 781 2988 
L 231 2988 
L 231 3322 
L 1356 3322 
L 1356 2731 
Q 1516 3069 1770 3241 
Q 2025 3413 2363 3413 
Q 2913 3413 3172 3097 
Q 3431 2781 3431 2113 
L 3431 331 
L 3944 331 
L 3944 0 
L 2356 0 
L 2356 331 
L 2853 331 
L 2853 1931 
Q 2853 2541 2703 2767 
Q 2553 2994 2175 2994 
Q 1775 2994 1565 2701 
Q 1356 2409 1356 1850 
L 1356 331 
L 1856 331 
L 1856 0 
L 263 0 
z
" transform="scale(0.015625)"/>
       <path id="DejaVuSerif-3" transform="scale(0.015625)"/>
       <path id="DejaVuSerif-53" d="M 1313 1825 
L 1313 1497 
Q 1313 897 1542 583 
Q 1772 269 2209 269 
Q 2650 269 2876 622 
Q 3103 975 3103 1663 
Q 3103 2353 2876 2703 
Q 2650 3053 2209 3053 
Q 1772 3053 1542 2737 
Q 1313 2422 1313 1825 
z
M 738 2988 
L 184 2988 
L 184 3322 
L 1313 3322 
L 1313 2803 
Q 1481 3116 1742 3264 
Q 2003 3413 2388 3413 
Q 3000 3413 3387 2928 
Q 3775 2444 3775 1663 
Q 3775 881 3387 395 
Q 3000 -91 2388 -91 
Q 2003 -91 1742 57 
Q 1481 206 1313 519 
L 1313 -997 
L 1856 -997 
L 1856 -1331 
L 184 -1331 
L 184 -997 
L 738 -997 
L 738 2988 
z
" transform="scale(0.015625)"/>
       <path id="DejaVuSerif-b" d="M 2041 -997 
Q 1281 -656 893 83 
Q 506 822 506 1931 
Q 506 3044 893 3783 
Q 1281 4522 2041 4863 
L 2041 4556 
Q 1559 4225 1350 3623 
Q 1141 3022 1141 1931 
Q 1141 844 1350 242 
Q 1559 -359 2041 -691 
L 2041 -997 
z
" transform="scale(0.015625)"/>
       <path id="DejaVuSerif-46" d="M 3291 997 
Q 3169 466 2822 187 
Q 2475 -91 1925 -91 
Q 1200 -91 759 389 
Q 319 869 319 1663 
Q 319 2459 759 2936 
Q 1200 3413 1925 3413 
Q 2241 3413 2553 3339 
Q 2866 3266 3181 3116 
L 3181 2266 
L 2847 2266 
Q 2781 2703 2561 2903 
Q 2341 3103 1931 3103 
Q 1466 3103 1228 2742 
Q 991 2381 991 1663 
Q 991 944 1227 581 
Q 1463 219 1931 219 
Q 2303 219 2525 412 
Q 2747 606 2828 997 
L 3291 997 
z
" transform="scale(0.015625)"/>
       <path id="DejaVuSerif-4b" d="M 263 0 
L 263 331 
L 781 331 
L 781 4531 
L 231 4531 
L 231 4863 
L 1356 4863 
L 1356 2731 
Q 1516 3069 1770 3241 
Q 2025 3413 2363 3413 
Q 2913 3413 3172 3097 
Q 3431 2781 3431 2113 
L 3431 331 
L 3944 331 
L 3944 0 
L 2356 0 
L 2356 331 
L 2853 331 
L 2853 1931 
Q 2853 2541 2704 2764 
Q 2556 2988 2175 2988 
Q 1775 2988 1565 2697 
Q 1356 2406 1356 1850 
L 1356 331 
L 1856 331 
L 1856 0 
L 263 0 
z
" transform="scale(0.015625)"/>
       <path id="DejaVuSerif-52" d="M 1925 219 
Q 2388 219 2623 584 
Q 2859 950 2859 1663 
Q 2859 2375 2623 2739 
Q 2388 3103 1925 3103 
Q 1463 3103 1227 2739 
Q 991 2375 991 1663 
Q 991 950 1228 584 
Q 1466 219 1925 219 
z
M 1925 -91 
Q 1200 -91 759 389 
Q 319 869 319 1663 
Q 319 2456 758 2934 
Q 1197 3413 1925 3413 
Q 2653 3413 3092 2934 
Q 3531 2456 3531 1663 
Q 3531 869 3092 389 
Q 2653 -91 1925 -91 
z
" transform="scale(0.015625)"/>
       <path id="DejaVuSerif-55" d="M 3059 3328 
L 3059 2497 
L 2728 2497 
Q 2713 2744 2591 2866 
Q 2469 2988 2234 2988 
Q 1809 2988 1582 2694 
Q 1356 2400 1356 1850 
L 1356 331 
L 2022 331 
L 2022 0 
L 263 0 
L 263 331 
L 781 331 
L 781 2994 
L 231 2994 
L 231 3322 
L 1356 3322 
L 1356 2731 
Q 1525 3078 1790 3245 
Q 2056 3413 2438 3413 
Q 2578 3413 2733 3391 
Q 2888 3369 3059 3328 
z
" transform="scale(0.015625)"/>
       <path id="DejaVuSerif-47" d="M 3359 331 
L 3909 331 
L 3909 0 
L 2784 0 
L 2784 519 
Q 2616 206 2355 57 
Q 2094 -91 1709 -91 
Q 1097 -91 708 395 
Q 319 881 319 1663 
Q 319 2444 706 2928 
Q 1094 3413 1709 3413 
Q 2094 3413 2355 3264 
Q 2616 3116 2784 2803 
L 2784 4531 
L 2241 4531 
L 2241 4863 
L 3359 4863 
L 3359 331 
z
M 2784 1497 
L 2784 1825 
Q 2784 2422 2554 2737 
Q 2325 3053 1888 3053 
Q 1444 3053 1217 2703 
Q 991 2353 991 1663 
Q 991 975 1217 622 
Q 1444 269 1888 269 
Q 2325 269 2554 583 
Q 2784 897 2784 1497 
z
" transform="scale(0.015625)"/>
       <path id="DejaVuSerif-4c" d="M 622 4353 
Q 622 4497 726 4603 
Q 831 4709 978 4709 
Q 1122 4709 1226 4603 
Q 1331 4497 1331 4353 
Q 1331 4206 1228 4103 
Q 1125 4000 978 4000 
Q 831 4000 726 4103 
Q 622 4206 622 4353 
z
M 1356 331 
L 1900 331 
L 1900 0 
L 231 0 
L 231 331 
L 781 331 
L 781 2988 
L 231 2988 
L 231 3322 
L 1356 3322 
L 1356 331 
z
" transform="scale(0.015625)"/>
       <path id="DejaVuSerif-56" d="M 359 184 
L 359 959 
L 691 959 
Q 703 588 923 403 
Q 1144 219 1575 219 
Q 1963 219 2166 364 
Q 2369 509 2369 788 
Q 2369 1006 2220 1140 
Q 2072 1275 1594 1428 
L 1178 1569 
Q 750 1706 558 1912 
Q 366 2119 366 2438 
Q 366 2894 700 3153 
Q 1034 3413 1625 3413 
Q 1888 3413 2178 3344 
Q 2469 3275 2778 3144 
L 2778 2419 
L 2447 2419 
Q 2434 2741 2221 2922 
Q 2009 3103 1644 3103 
Q 1281 3103 1095 2975 
Q 909 2847 909 2591 
Q 909 2381 1050 2254 
Q 1191 2128 1613 1997 
L 2069 1856 
Q 2541 1709 2748 1489 
Q 2956 1269 2956 922 
Q 2956 450 2595 179 
Q 2234 -91 1600 -91 
Q 1278 -91 972 -22 
Q 666 47 359 184 
z
" transform="scale(0.015625)"/>
       <path id="DejaVuSerif-c" d="M 453 -997 
L 453 -691 
Q 934 -359 1145 242 
Q 1356 844 1356 1931 
Q 1356 3022 1145 3623 
Q 934 4225 453 4556 
L 453 4863 
Q 1216 4522 1603 3783 
Q 1991 3044 1991 1931 
Q 1991 822 1603 83 
Q 1216 -656 453 -997 
z
" transform="scale(0.015625)"/>
      </defs>
      <use xlink:href="#DejaVuSerif-50"/>
      <use xlink:href="#DejaVuSerif-48" transform="translate(94.828125 0)"/>
      <use xlink:href="#DejaVuSerif-44" transform="translate(154.015625 0)"/>
      <use xlink:href="#DejaVuSerif-51" transform="translate(213.640625 0)"/>
      <use xlink:href="#DejaVuSerif-3" transform="translate(278.046875 0)"/>
      <use xlink:href="#DejaVuSerif-53" transform="translate(309.828125 0)"/>
      <use xlink:href="#DejaVuSerif-48" transform="translate(373.84375 0)"/>
      <use xlink:href="#DejaVuSerif-44" transform="translate(433.03125 0)"/>
      <use xlink:href="#DejaVuSerif-4e" transform="translate(492.65625 0)"/>
      <use xlink:href="#DejaVuSerif-3" transform="translate(553.25 0)"/>
      <use xlink:href="#DejaVuSerif-b" transform="translate(585.03125 0)"/>
      <use xlink:href="#DejaVuSerif-44" transform="translate(624.046875 0)"/>
      <use xlink:href="#DejaVuSerif-51" transform="translate(683.671875 0)"/>
      <use xlink:href="#DejaVuSerif-46" transform="translate(748.078125 0)"/>
      <use xlink:href="#DejaVuSerif-4b" transform="translate(804.078125 0)"/>
      <use xlink:href="#DejaVuSerif-52" transform="translate(868.484375 0)"/>
      <use xlink:href="#DejaVuSerif-55" transform="translate(928.6875 0)"/>
      <use xlink:href="#DejaVuSerif-3" transform="translate(976.484375 0)"/>
      <use xlink:href="#DejaVuSerif-47" transform="translate(1008.265625 0)"/>
      <use xlink:href="#DejaVuSerif-4c" transform="translate(1072.28125 0)"/>
      <use xlink:href="#DejaVuSerif-56" transform="translate(1104.265625 0)"/>
      <use xlink:href="#DejaVuSerif-48" transform="translate(1155.578125 0)"/>
      <use xlink:href="#DejaVuSerif-44" transform="translate(1214.765625 0)"/>
      <use xlink:href="#DejaVuSerif-56" transform="translate(1274.390625 0)"/>
      <use xlink:href="#DejaVuSerif-48" transform="translate(1325.703125 0)"/>
      <use xlink:href="#DejaVuSerif-c" transform="translate(1384.890625 0)"/>
     </g>
    </g>
   </g>
   <g id="matplotlib.axis_2">
    <g id="ytick_1">
     <g id="line2d_9">
      <defs>
       <path id="ma17cad06a8" d="M 0 0 
L -3.5 0 
" style="stroke: #000000; stroke-width: 0.8"/>
      </defs>
      <g>
       <use xlink:href="#ma17cad06a8" x="57.788828" y="121.705968" style="stroke: #000000; stroke-width: 0.8"/>
      </g>
     </g>
     <g id="text_10">
      <!-- betweenness -->
      <g transform="translate(1.44 124.555382) scale(0.075 -0.075)">
       <defs>
        <path id="DejaVuSerif-45" d="M 738 331 
L 738 4531 
L 184 4531 
L 184 4863 
L 1313 4863 
L 1313 2803 
Q 1481 3116 1742 3264 
Q 2003 3413 2388 3413 
Q 3000 3413 3387 2928 
Q 3775 2444 3775 1663 
Q 3775 881 3387 395 
Q 3000 -91 2388 -91 
Q 2003 -91 1742 57 
Q 1481 206 1313 519 
L 1313 0 
L 184 0 
L 184 331 
L 738 331 
z
M 1313 1497 
Q 1313 897 1542 583 
Q 1772 269 2209 269 
Q 2650 269 2876 622 
Q 3103 975 3103 1663 
Q 3103 2353 2876 2703 
Q 2650 3053 2209 3053 
Q 1772 3053 1542 2737 
Q 1313 2422 1313 1825 
L 1313 1497 
z
" transform="scale(0.015625)"/>
        <path id="DejaVuSerif-57" d="M 691 2988 
L 184 2988 
L 184 3322 
L 691 3322 
L 691 4353 
L 1269 4353 
L 1269 3322 
L 2350 3322 
L 2350 2988 
L 1269 2988 
L 1269 878 
Q 1269 456 1350 337 
Q 1431 219 1650 219 
Q 1875 219 1978 351 
Q 2081 484 2088 781 
L 2522 781 
Q 2497 328 2275 118 
Q 2053 -91 1600 -91 
Q 1103 -91 897 129 
Q 691 350 691 878 
L 691 2988 
z
" transform="scale(0.015625)"/>
        <path id="DejaVuSerif-5a" d="M 3072 3322 
L 3922 728 
L 4672 2988 
L 4191 2988 
L 4191 3322 
L 5394 3322 
L 5394 2988 
L 5025 2988 
L 4038 0 
L 3559 0 
L 2741 2484 
L 1919 0 
L 1459 0 
L 475 2988 
L 103 2988 
L 103 3322 
L 1606 3322 
L 1606 2988 
L 1069 2988 
L 1813 728 
L 2669 3322 
L 3072 3322 
z
" transform="scale(0.015625)"/>
       </defs>
       <use xlink:href="#DejaVuSerif-45"/>
       <use xlink:href="#DejaVuSerif-48" transform="translate(64.015625 0)"/>
       <use xlink:href="#DejaVuSerif-57" transform="translate(123.203125 0)"/>
       <use xlink:href="#DejaVuSerif-5a" transform="translate(163.390625 0)"/>
       <use xlink:href="#DejaVuSerif-48" transform="translate(248.984375 0)"/>
       <use xlink:href="#DejaVuSerif-48" transform="translate(308.171875 0)"/>
       <use xlink:href="#DejaVuSerif-51" transform="translate(367.359375 0)"/>
       <use xlink:href="#DejaVuSerif-51" transform="translate(431.765625 0)"/>
       <use xlink:href="#DejaVuSerif-48" transform="translate(496.171875 0)"/>
       <use xlink:href="#DejaVuSerif-56" transform="translate(555.359375 0)"/>
       <use xlink:href="#DejaVuSerif-56" transform="translate(606.671875 0)"/>
      </g>
     </g>
    </g>
    <g id="ytick_2">
     <g id="line2d_10">
      <g>
       <use xlink:href="#ma17cad06a8" x="57.788828" y="95.041892" style="stroke: #000000; stroke-width: 0.8"/>
      </g>
     </g>
     <g id="text_11">
      <!-- random -->
      <g transform="translate(21.473203 97.891306) scale(0.075 -0.075)">
       <use xlink:href="#DejaVuSerif-55"/>
       <use xlink:href="#DejaVuSerif-44" transform="translate(47.796875 0)"/>
       <use xlink:href="#DejaVuSerif-51" transform="translate(107.421875 0)"/>
       <use xlink:href="#DejaVuSerif-47" transform="translate(171.828125 0)"/>
       <use xlink:href="#DejaVuSerif-52" transform="translate(235.84375 0)"/>
       <use xlink:href="#DejaVuSerif-50" transform="translate(296.046875 0)"/>
      </g>
     </g>
    </g>
    <g id="ytick_3">
     <g id="line2d_11">
      <g>
       <use xlink:href="#ma17cad06a8" x="57.788828" y="68.377815" style="stroke: #000000; stroke-width: 0.8"/>
      </g>
     </g>
     <g id="text_12">
      <!-- subgraph -->
      <g transform="translate(14.819297 71.227229) scale(0.075 -0.075)">
       <defs>
        <path id="DejaVuSerif-58" d="M 2266 3322 
L 3341 3322 
L 3341 331 
L 3884 331 
L 3884 0 
L 2766 0 
L 2766 588 
Q 2606 256 2353 82 
Q 2100 -91 1766 -91 
Q 1213 -91 952 223 
Q 691 538 691 1209 
L 691 2988 
L 172 2988 
L 172 3322 
L 1269 3322 
L 1269 1388 
Q 1269 781 1417 556 
Q 1566 331 1947 331 
Q 2347 331 2556 625 
Q 2766 919 2766 1478 
L 2766 2988 
L 2266 2988 
L 2266 3322 
z
" transform="scale(0.015625)"/>
        <path id="DejaVuSerif-4a" d="M 3359 2988 
L 3359 72 
Q 3359 -644 2965 -1033 
Q 2572 -1422 1844 -1422 
Q 1516 -1422 1216 -1362 
Q 916 -1303 641 -1184 
L 641 -488 
L 941 -488 
Q 997 -813 1206 -963 
Q 1416 -1113 1806 -1113 
Q 2313 -1113 2548 -827 
Q 2784 -541 2784 72 
L 2784 519 
Q 2616 206 2355 57 
Q 2094 -91 1709 -91 
Q 1097 -91 708 395 
Q 319 881 319 1663 
Q 319 2444 706 2928 
Q 1094 3413 1709 3413 
Q 2094 3413 2355 3264 
Q 2616 3116 2784 2803 
L 2784 3322 
L 3909 3322 
L 3909 2988 
L 3359 2988 
z
M 2784 1825 
Q 2784 2422 2554 2737 
Q 2325 3053 1888 3053 
Q 1444 3053 1217 2703 
Q 991 2353 991 1663 
Q 991 975 1217 622 
Q 1444 269 1888 269 
Q 2325 269 2554 583 
Q 2784 897 2784 1497 
L 2784 1825 
z
" transform="scale(0.015625)"/>
       </defs>
       <use xlink:href="#DejaVuSerif-56"/>
       <use xlink:href="#DejaVuSerif-58" transform="translate(51.3125 0)"/>
       <use xlink:href="#DejaVuSerif-45" transform="translate(115.71875 0)"/>
       <use xlink:href="#DejaVuSerif-4a" transform="translate(179.734375 0)"/>
       <use xlink:href="#DejaVuSerif-55" transform="translate(243.75 0)"/>
       <use xlink:href="#DejaVuSerif-44" transform="translate(291.546875 0)"/>
       <use xlink:href="#DejaVuSerif-53" transform="translate(351.171875 0)"/>
       <use xlink:href="#DejaVuSerif-4b" transform="translate(415.1875 0)"/>
      </g>
     </g>
    </g>
    <g id="ytick_4">
     <g id="line2d_12">
      <g>
       <use xlink:href="#ma17cad06a8" x="57.788828" y="41.713739" style="stroke: #000000; stroke-width: 0.8"/>
      </g>
     </g>
     <g id="text_13">
      <!-- degree -->
      <g transform="translate(24.284531 44.563153) scale(0.075 -0.075)">
       <use xlink:href="#DejaVuSerif-47"/>
       <use xlink:href="#DejaVuSerif-48" transform="translate(64.015625 0)"/>
       <use xlink:href="#DejaVuSerif-4a" transform="translate(123.203125 0)"/>
       <use xlink:href="#DejaVuSerif-55" transform="translate(187.21875 0)"/>
       <use xlink:href="#DejaVuSerif-48" transform="translate(235.015625 0)"/>
       <use xlink:href="#DejaVuSerif-48" transform="translate(294.203125 0)"/>
      </g>
     </g>
    </g>
   </g>
   <g id="patch_7">
    <path d="M 57.788828 137.437773 
L 57.788828 25.981934 
" style="fill: none; stroke: #000000; stroke-width: 0.8; stroke-linejoin: miter; stroke-linecap: square"/>
   </g>
   <g id="patch_8">
    <path d="M 57.788828 137.437773 
L 239.335205 137.437773 
" style="fill: none; stroke: #000000; stroke-width: 0.8; stroke-linejoin: miter; stroke-linecap: square"/>
   </g>
   <g id="text_14">
    <!-- Stage 2: pick the winner on Measles (SIR) -->
    <g transform="translate(52.17272 9.179473) scale(0.09 -0.09)">
     <defs>
      <path id="DejaVuSerif-36" d="M 594 225 
L 594 1288 
L 953 1284 
Q 969 753 1261 498 
Q 1553 244 2150 244 
Q 2706 244 2998 464 
Q 3291 684 3291 1106 
Q 3291 1444 3114 1625 
Q 2938 1806 2369 1978 
L 1753 2163 
Q 1084 2366 811 2669 
Q 538 2972 538 3500 
Q 538 4094 959 4422 
Q 1381 4750 2144 4750 
Q 2469 4750 2856 4679 
Q 3244 4609 3681 4475 
L 3681 3481 
L 3328 3481 
Q 3275 3975 2998 4195 
Q 2722 4416 2156 4416 
Q 1663 4416 1405 4214 
Q 1147 4013 1147 3628 
Q 1147 3294 1340 3103 
Q 1534 2913 2163 2725 
L 2741 2553 
Q 3375 2363 3645 2067 
Q 3916 1772 3916 1275 
Q 3916 597 3481 253 
Q 3047 -91 2188 -91 
Q 1803 -91 1404 -12 
Q 1006 66 594 225 
z
" transform="scale(0.015625)"/>
      <path id="DejaVuSerif-1d" d="M 666 325 
Q 666 500 786 622 
Q 906 744 1081 744 
Q 1256 744 1376 622 
Q 1497 500 1497 325 
Q 1497 150 1378 29 
Q 1259 -91 1081 -91 
Q 903 -91 784 29 
Q 666 150 666 325 
z
M 666 2363 
Q 666 2538 786 2658 
Q 906 2778 1081 2778 
Q 1259 2778 1378 2659 
Q 1497 2541 1497 2363 
Q 1497 2184 1378 2065 
Q 1259 1947 1081 1947 
Q 906 1947 786 2067 
Q 666 2188 666 2363 
z
" transform="scale(0.015625)"/>
      <path id="DejaVuSerif-4f" d="M 1313 331 
L 1856 331 
L 1856 0 
L 184 0 
L 184 331 
L 738 331 
L 738 4531 
L 184 4531 
L 184 4863 
L 1313 4863 
L 1313 331 
z
" transform="scale(0.015625)"/>
      <path id="DejaVuSerif-2c" d="M 1581 331 
L 2175 331 
L 2175 0 
L 353 0 
L 353 331 
L 947 331 
L 947 4331 
L 353 4331 
L 353 4666 
L 2175 4666 
L 2175 4331 
L 1581 4331 
L 1581 331 
z
" transform="scale(0.015625)"/>
      <path id="DejaVuSerif-35" d="M 3066 2316 
Q 3284 2256 3442 2114 
Q 3600 1972 3725 1716 
L 4403 331 
L 4972 331 
L 4972 0 
L 3872 0 
L 3144 1484 
Q 2934 1916 2759 2042 
Q 2584 2169 2278 2169 
L 1581 2169 
L 1581 331 
L 2241 331 
L 2241 0 
L 353 0 
L 353 331 
L 947 331 
L 947 4331 
L 353 4331 
L 353 4666 
L 2719 4666 
Q 3400 4666 3770 4341 
Q 4141 4016 4141 3419 
Q 4141 2938 3870 2661 
Q 3600 2384 3066 2316 
z
M 1581 2503 
L 2503 2503 
Q 2975 2503 3200 2726 
Q 3425 2950 3425 3419 
Q 3425 3888 3200 4109 
Q 2975 4331 2503 4331 
L 1581 4331 
L 1581 2503 
z
" transform="scale(0.015625)"/>
     </defs>
     <use xlink:href="#DejaVuSerif-36"/>
     <use xlink:href="#DejaVuSerif-57" transform="translate(68.5 0)"/>
     <use xlink:href="#DejaVuSerif-44" transform="translate(108.6875 0)"/>
     <use xlink:href="#DejaVuSerif-4a" transform="translate(168.3125 0)"/>
     <use xlink:href="#DejaVuSerif-48" transform="translate(232.328125 0)"/>
     <use xlink:href="#DejaVuSerif-3" transform="translate(291.515625 0)"/>
     <use xlink:href="#DejaVuSerif-15" transform="translate(323.296875 0)"/>
     <use xlink:href="#DejaVuSerif-1d" transform="translate(386.921875 0)"/>
     <use xlink:href="#DejaVuSerif-3" transform="translate(420.609375 0)"/>
     <use xlink:href="#DejaVuSerif-53" transform="translate(452.390625 0)"/>
     <use xlink:href="#DejaVuSerif-4c" transform="translate(516.40625 0)"/>
     <use xlink:href="#DejaVuSerif-46" transform="translate(548.390625 0)"/>
     <use xlink:href="#DejaVuSerif-4e" transform="translate(604.390625 0)"/>
     <use xlink:href="#DejaVuSerif-3" transform="translate(664.984375 0)"/>
     <use xlink:href="#DejaVuSerif-57" transform="translate(696.765625 0)"/>
     <use xlink:href="#DejaVuSerif-4b" transform="translate(736.953125 0)"/>
     <use xlink:href="#DejaVuSerif-48" transform="translate(801.359375 0)"/>
     <use xlink:href="#DejaVuSerif-3" transform="translate(860.546875 0)"/>
     <use xlink:href="#DejaVuSerif-5a" transform="translate(892.328125 0)"/>
     <use xlink:href="#DejaVuSerif-4c" transform="translate(977.921875 0)"/>
     <use xlink:href="#DejaVuSerif-51" transform="translate(1009.90625 0)"/>
     <use xlink:href="#DejaVuSerif-51" transform="translate(1074.3125 0)"/>
     <use xlink:href="#DejaVuSerif-48" transform="translate(1138.71875 0)"/>
     <use xlink:href="#DejaVuSerif-55" transform="translate(1197.90625 0)"/>
     <use xlink:href="#DejaVuSerif-3" transform="translate(1245.703125 0)"/>
     <use xlink:href="#DejaVuSerif-52" transform="translate(1277.484375 0)"/>
     <use xlink:href="#DejaVuSerif-51" transform="translate(1337.6875 0)"/>
     <use xlink:href="#DejaVuSerif-3" transform="translate(1402.09375 0)"/>
     <use xlink:href="#DejaVuSerif-30" transform="translate(1433.875 0)"/>
     <use xlink:href="#DejaVuSerif-48" transform="translate(1536.265625 0)"/>
     <use xlink:href="#DejaVuSerif-44" transform="translate(1595.453125 0)"/>
     <use xlink:href="#DejaVuSerif-56" transform="translate(1655.078125 0)"/>
     <use xlink:href="#DejaVuSerif-4f" transform="translate(1706.390625 0)"/>
     <use xlink:href="#DejaVuSerif-48" transform="translate(1738.375 0)"/>
     <use xlink:href="#DejaVuSerif-56" transform="translate(1797.5625 0)"/>
     <use xlink:href="#DejaVuSerif-3" transform="translate(1848.875 0)"/>
     <use xlink:href="#DejaVuSerif-b" transform="translate(1880.65625 0)"/>
     <use xlink:href="#DejaVuSerif-36" transform="translate(1919.671875 0)"/>
     <use xlink:href="#DejaVuSerif-2c" transform="translate(1988.171875 0)"/>
     <use xlink:href="#DejaVuSerif-35" transform="translate(2027.671875 0)"/>
     <use xlink:href="#DejaVuSerif-c" transform="translate(2102.96875 0)"/>
    </g>
    <!-- (winner: degree) -->
    <g transform="translate(110.300063 19.981934) scale(0.09 -0.09)">
     <use xlink:href="#DejaVuSerif-b"/>
     <use xlink:href="#DejaVuSerif-5a" transform="translate(39.015625 0)"/>
     <use xlink:href="#DejaVuSerif-4c" transform="translate(124.609375 0)"/>
     <use xlink:href="#DejaVuSerif-51" transform="translate(156.59375 0)"/>
     <use xlink:href="#DejaVuSerif-51" transform="translate(221 0)"/>
     <use xlink:href="#DejaVuSerif-48" transform="translate(285.40625 0)"/>
     <use xlink:href="#DejaVuSerif-55" transform="translate(344.59375 0)"/>
     <use xlink:href="#DejaVuSerif-1d" transform="translate(392.390625 0)"/>
     <use xlink:href="#DejaVuSerif-3" transform="translate(426.078125 0)"/>
     <use xlink:href="#DejaVuSerif-47" transform="translate(457.859375 0)"/>
     <use xlink:href="#DejaVuSerif-48" transform="translate(521.875 0)"/>
     <use xlink:href="#DejaVuSerif-4a" transform="translate(581.0625 0)"/>
     <use xlink:href="#DejaVuSerif-55" transform="translate(645.078125 0)"/>
     <use xlink:href="#DejaVuSerif-48" transform="translate(692.875 0)"/>
     <use xlink:href="#DejaVuSerif-48" transform="translate(752.0625 0)"/>
     <use xlink:href="#DejaVuSerif-c" transform="translate(811.25 0)"/>
    </g>
   </g>
  </g>
  <g id="axes_2">
   <g id="patch_9">
    <path d="M 293.952699 137.437773 
L 475.499076 137.437773 
L 475.499076 25.981934 
L 293.952699 25.981934 
z
" style="fill: #ffffff"/>
   </g>
   <g id="patch_10">
    <path d="M 302.204807 137.437773 
L 467.246968 137.437773 
L 467.246968 31.289355 
L 302.204807 31.289355 
z
" clip-path="url(#p05eb13fcaf)" style="fill: #bdbdbd"/>
   </g>
   <g id="patch_11">
    <path d="M 0 0 
z
" clip-path="url(#p05eb13fcaf)" style="fill: #08519c"/>
   </g>
   <g id="matplotlib.axis_3">
    <g id="xtick_9">
     <g id="line2d_13">
      <g>
       <use xlink:href="#m02eb913279" x="467.246968" y="137.437773" style="stroke: #000000; stroke-width: 0.8"/>
      </g>
     </g>
     <g id="text_15">
      <!-- Gonorrhea -->
      <g transform="translate(446.865132 150.887334) scale(0.075 -0.075)">
       <defs>
        <path id="DejaVuSerif-2a" d="M 4097 3272 
Q 3988 3856 3641 4136 
Q 3294 4416 2675 4416 
Q 1869 4416 1472 3897 
Q 1075 3378 1075 2328 
Q 1075 1300 1484 772 
Q 1894 244 2688 244 
Q 3041 244 3362 331 
Q 3684 419 3975 594 
L 3975 1797 
L 3097 1797 
L 3097 2131 
L 4609 2131 
L 4609 391 
Q 4194 150 3714 29 
Q 3234 -91 2688 -91 
Q 1631 -91 995 570 
Q 359 1231 359 2328 
Q 359 3434 996 4092 
Q 1634 4750 2713 4750 
Q 3113 4750 3539 4658 
Q 3966 4566 4447 4378 
L 4447 3272 
L 4097 3272 
z
" transform="scale(0.015625)"/>
       </defs>
       <use xlink:href="#DejaVuSerif-2a"/>
       <use xlink:href="#DejaVuSerif-52" transform="translate(79.890625 0)"/>
       <use xlink:href="#DejaVuSerif-51" transform="translate(140.09375 0)"/>
       <use xlink:href="#DejaVuSerif-52" transform="translate(204.5 0)"/>
       <use xlink:href="#DejaVuSerif-55" transform="translate(264.703125 0)"/>
       <use xlink:href="#DejaVuSerif-55" transform="translate(312.5 0)"/>
       <use xlink:href="#DejaVuSerif-4b" transform="translate(360.296875 0)"/>
       <use xlink:href="#DejaVuSerif-48" transform="translate(424.703125 0)"/>
       <use xlink:href="#DejaVuSerif-44" transform="translate(483.890625 0)"/>
      </g>
      <!-- (SIS) -->
      <g transform="translate(457.702046 159.889385) scale(0.075 -0.075)">
       <use xlink:href="#DejaVuSerif-b"/>
       <use xlink:href="#DejaVuSerif-36" transform="translate(39.015625 0)"/>
       <use xlink:href="#DejaVuSerif-2c" transform="translate(107.515625 0)"/>
       <use xlink:href="#DejaVuSerif-36" transform="translate(147.015625 0)"/>
       <use xlink:href="#DejaVuSerif-c" transform="translate(215.515625 0)"/>
      </g>
     </g>
    </g>
   </g>
   <g id="matplotlib.axis_4">
    <g id="ytick_5">
     <g id="line2d_14">
      <g>
       <use xlink:href="#ma17cad06a8" x="293.952699" y="137.437773" style="stroke: #000000; stroke-width: 0.8"/>
      </g>
     </g>
     <g id="text_16">
      <!-- 0k -->
      <g transform="translate(277.636293 140.287188) scale(0.075 -0.075)">
       <use xlink:href="#DejaVuSerif-13"/>
       <use xlink:href="#DejaVuSerif-4e" transform="translate(63.625 0)"/>
      </g>
     </g>
    </g>
    <g id="ytick_6">
     <g id="line2d_15">
      <g>
       <use xlink:href="#ma17cad06a8" x="293.952699" y="115.611992" style="stroke: #000000; stroke-width: 0.8"/>
      </g>
     </g>
     <g id="text_17">
      <!-- 20M -->
      <g transform="translate(269.729652 118.461113) scale(0.075 -0.075)">
       <use xlink:href="#DejaVuSerif-15"/>
       <use xlink:href="#DejaVuSerif-13" transform="translate(63.625 0)"/>
       <use xlink:href="#DejaVuSerif-30" transform="translate(127.25 0)"/>
      </g>
     </g>
    </g>
    <g id="ytick_7">
     <g id="line2d_16">
      <g>
       <use xlink:href="#ma17cad06a8" x="293.952699" y="93.786211" style="stroke: #000000; stroke-width: 0.8"/>
      </g>
     </g>
     <g id="text_18">
      <!-- 40M -->
      <g transform="translate(269.729652 96.635332) scale(0.075 -0.075)">
       <use xlink:href="#DejaVuSerif-17"/>
       <use xlink:href="#DejaVuSerif-13" transform="translate(63.625 0)"/>
       <use xlink:href="#DejaVuSerif-30" transform="translate(127.25 0)"/>
      </g>
     </g>
    </g>
    <g id="ytick_8">
     <g id="line2d_17">
      <g>
       <use xlink:href="#ma17cad06a8" x="293.952699" y="71.96043" style="stroke: #000000; stroke-width: 0.8"/>
      </g>
     </g>
     <g id="text_19">
      <!-- 60M -->
      <g transform="translate(269.729652 74.809551) scale(0.075 -0.075)">
       <use xlink:href="#DejaVuSerif-19"/>
       <use xlink:href="#DejaVuSerif-13" transform="translate(63.625 0)"/>
       <use xlink:href="#DejaVuSerif-30" transform="translate(127.25 0)"/>
      </g>
     </g>
    </g>
    <g id="ytick_9">
     <g id="line2d_18">
      <g>
       <use xlink:href="#ma17cad06a8" x="293.952699" y="50.134649" style="stroke: #000000; stroke-width: 0.8"/>
      </g>
     </g>
     <g id="text_20">
      <!-- 80M -->
      <g transform="translate(269.729652 52.98377) scale(0.075 -0.075)">
       <use xlink:href="#DejaVuSerif-1b"/>
       <use xlink:href="#DejaVuSerif-13" transform="translate(63.625 0)"/>
       <use xlink:href="#DejaVuSerif-30" transform="translate(127.25 0)"/>
      </g>
     </g>
    </g>
    <g id="ytick_10">
     <g id="line2d_19">
      <g>
       <use xlink:href="#ma17cad06a8" x="293.952699" y="28.308868" style="stroke: #000000; stroke-width: 0.8"/>
      </g>
     </g>
     <g id="text_21">
      <!-- 100M -->
      <g transform="translate(264.957777 31.157989) scale(0.075 -0.075)">
       <use xlink:href="#DejaVuSerif-14"/>
       <use xlink:href="#DejaVuSerif-13" transform="translate(63.625 0)"/>
       <use xlink:href="#DejaVuSerif-13" transform="translate(127.25 0)"/>
       <use xlink:href="#DejaVuSerif-30" transform="translate(190.875 0)"/>
      </g>
     </g>
    </g>
    <g id="text_22">
     <!-- peak active infections -->
     <g transform="translate(259.035902 125.996104) rotate(-90) scale(0.08 -0.08)">
      <defs>
       <path id="DejaVuSerif-59" d="M 1581 0 
L 359 2988 
L -19 2988 
L -19 3322 
L 1509 3322 
L 1509 2988 
L 978 2988 
L 1913 703 
L 2847 2988 
L 2350 2988 
L 2350 3322 
L 3597 3322 
L 3597 2988 
L 3225 2988 
L 2003 0 
L 1581 0 
z
" transform="scale(0.015625)"/>
       <path id="DejaVuSerif-49" d="M 2753 4078 
L 2450 4078 
Q 2447 4313 2317 4434 
Q 2188 4556 1941 4556 
Q 1619 4556 1487 4379 
Q 1356 4203 1356 3750 
L 1356 3322 
L 2284 3322 
L 2284 2988 
L 1356 2988 
L 1356 331 
L 2094 331 
L 2094 0 
L 231 0 
L 231 331 
L 781 331 
L 781 2988 
L 231 2988 
L 231 3322 
L 781 3322 
L 781 3738 
Q 781 4294 1070 4578 
Q 1359 4863 1919 4863 
Q 2128 4863 2337 4825 
Q 2547 4788 2753 4709 
L 2753 4078 
z
" transform="scale(0.015625)"/>
      </defs>
      <use xlink:href="#DejaVuSerif-53"/>
      <use xlink:href="#DejaVuSerif-48" transform="translate(64.015625 0)"/>
      <use xlink:href="#DejaVuSerif-44" transform="translate(123.203125 0)"/>
      <use xlink:href="#DejaVuSerif-4e" transform="translate(182.828125 0)"/>
      <use xlink:href="#DejaVuSerif-3" transform="translate(243.421875 0)"/>
      <use xlink:href="#DejaVuSerif-44" transform="translate(275.203125 0)"/>
      <use xlink:href="#DejaVuSerif-46" transform="translate(334.828125 0)"/>
      <use xlink:href="#DejaVuSerif-57" transform="translate(390.828125 0)"/>
      <use xlink:href="#DejaVuSerif-4c" transform="translate(431.015625 0)"/>
      <use xlink:href="#DejaVuSerif-59" transform="translate(463 0)"/>
      <use xlink:href="#DejaVuSerif-48" transform="translate(519.5 0)"/>
      <use xlink:href="#DejaVuSerif-3" transform="translate(578.6875 0)"/>
      <use xlink:href="#DejaVuSerif-4c" transform="translate(610.46875 0)"/>
      <use xlink:href="#DejaVuSerif-51" transform="translate(642.453125 0)"/>
      <use xlink:href="#DejaVuSerif-49" transform="translate(706.859375 0)"/>
      <use xlink:href="#DejaVuSerif-48" transform="translate(743.875 0)"/>
      <use xlink:href="#DejaVuSerif-46" transform="translate(803.0625 0)"/>
      <use xlink:href="#DejaVuSerif-57" transform="translate(859.0625 0)"/>
      <use xlink:href="#DejaVuSerif-4c" transform="translate(899.25 0)"/>
      <use xlink:href="#DejaVuSerif-52" transform="translate(931.234375 0)"/>
      <use xlink:href="#DejaVuSerif-51" transform="translate(991.4375 0)"/>
      <use xlink:href="#DejaVuSerif-56" transform="translate(1055.84375 0)"/>
     </g>
    </g>
   </g>
   <g id="patch_12">
    <path d="M 293.952699 137.437773 
L 293.952699 25.981934 
" style="fill: none; stroke: #000000; stroke-width: 0.8; stroke-linejoin: miter; stroke-linecap: square"/>
   </g>
   <g id="patch_13">
    <path d="M 293.952699 137.437773 
L 475.499076 137.437773 
" style="fill: none; stroke: #000000; stroke-width: 0.8; stroke-linejoin: miter; stroke-linecap: square"/>
   </g>
   <g id="text_23">
    <!-- Stage 3: does 'degree' generalise? -->
    <g transform="translate(306.366122 9.179473) scale(0.09 -0.09)">
     <defs>
      <path id="DejaVuSerif-16" d="M 622 4469 
Q 988 4606 1323 4678 
Q 1659 4750 1953 4750 
Q 2638 4750 3022 4454 
Q 3406 4159 3406 3634 
Q 3406 3213 3140 2930 
Q 2875 2647 2388 2547 
Q 2963 2466 3280 2130 
Q 3597 1794 3597 1259 
Q 3597 606 3158 257 
Q 2719 -91 1894 -91 
Q 1528 -91 1179 -12 
Q 831 66 488 225 
L 488 1131 
L 838 1131 
Q 869 681 1141 450 
Q 1413 219 1906 219 
Q 2384 219 2661 495 
Q 2938 772 2938 1253 
Q 2938 1803 2653 2086 
Q 2369 2369 1819 2369 
L 1522 2369 
L 1522 2688 
L 1678 2688 
Q 2225 2688 2498 2914 
Q 2772 3141 2772 3597 
Q 2772 4006 2547 4223 
Q 2322 4441 1900 4441 
Q 1478 4441 1245 4241 
Q 1013 4041 972 3647 
L 622 3647 
L 622 4469 
z
" transform="scale(0.015625)"/>
      <path id="DejaVuSerif-a" d="M 1125 4666 
L 1125 2931 
L 628 2931 
L 628 4666 
L 1125 4666 
z
" transform="scale(0.015625)"/>
      <path id="DejaVuSerif-22" d="M 1125 325 
Q 1125 500 1245 622 
Q 1366 744 1544 744 
Q 1716 744 1837 622 
Q 1959 500 1959 325 
Q 1959 153 1837 31 
Q 1716 -91 1544 -91 
Q 1366 -91 1245 29 
Q 1125 150 1125 325 
z
M 434 4459 
Q 766 4606 1064 4678 
Q 1363 4750 1625 4750 
Q 2319 4750 2720 4415 
Q 3122 4081 3122 3513 
Q 3122 2931 2776 2562 
Q 2431 2194 1734 2034 
L 1734 1241 
L 1350 1241 
L 1350 2266 
Q 1903 2400 2183 2715 
Q 2463 3031 2463 3519 
Q 2463 3947 2234 4194 
Q 2006 4441 1613 4441 
Q 1256 4441 1029 4236 
Q 803 4031 738 3647 
L 434 3647 
L 434 4459 
z
" transform="scale(0.015625)"/>
     </defs>
     <use xlink:href="#DejaVuSerif-36"/>
     <use xlink:href="#DejaVuSerif-57" transform="translate(68.5 0)"/>
     <use xlink:href="#DejaVuSerif-44" transform="translate(108.6875 0)"/>
     <use xlink:href="#DejaVuSerif-4a" transform="translate(168.3125 0)"/>
     <use xlink:href="#DejaVuSerif-48" transform="translate(232.328125 0)"/>
     <use xlink:href="#DejaVuSerif-3" transform="translate(291.515625 0)"/>
     <use xlink:href="#DejaVuSerif-16" transform="translate(323.296875 0)"/>
     <use xlink:href="#DejaVuSerif-1d" transform="translate(386.921875 0)"/>
     <use xlink:href="#DejaVuSerif-3" transform="translate(420.609375 0)"/>
     <use xlink:href="#DejaVuSerif-47" transform="translate(452.390625 0)"/>
     <use xlink:href="#DejaVuSerif-52" transform="translate(516.40625 0)"/>
     <use xlink:href="#DejaVuSerif-48" transform="translate(576.609375 0)"/>
     <use xlink:href="#DejaVuSerif-56" transform="translate(635.796875 0)"/>
     <use xlink:href="#DejaVuSerif-3" transform="translate(687.109375 0)"/>
     <use xlink:href="#DejaVuSerif-a" transform="translate(718.890625 0)"/>
     <use xlink:href="#DejaVuSerif-47" transform="translate(746.375 0)"/>
     <use xlink:href="#DejaVuSerif-48" transform="translate(810.390625 0)"/>
     <use xlink:href="#DejaVuSerif-4a" transform="translate(869.578125 0)"/>
     <use xlink:href="#DejaVuSerif-55" transform="translate(933.59375 0)"/>
     <use xlink:href="#DejaVuSerif-48" transform="translate(981.390625 0)"/>
     <use xlink:href="#DejaVuSerif-48" transform="translate(1040.578125 0)"/>
     <use xlink:href="#DejaVuSerif-a" transform="translate(1099.765625 0)"/>
     <use xlink:href="#DejaVuSerif-3" transform="translate(1127.25 0)"/>
     <use xlink:href="#DejaVuSerif-4a" transform="translate(1159.03125 0)"/>
     <use xlink:href="#DejaVuSerif-48" transform="translate(1223.046875 0)"/>
     <use xlink:href="#DejaVuSerif-51" transform="translate(1282.234375 0)"/>
     <use xlink:href="#DejaVuSerif-48" transform="translate(1346.640625 0)"/>
     <use xlink:href="#DejaVuSerif-55" transform="translate(1405.828125 0)"/>
     <use xlink:href="#DejaVuSerif-44" transform="translate(1453.625 0)"/>
     <use xlink:href="#DejaVuSerif-4f" transform="translate(1513.25 0)"/>
     <use xlink:href="#DejaVuSerif-4c" transform="translate(1545.234375 0)"/>
     <use xlink:href="#DejaVuSerif-56" transform="translate(1577.21875 0)"/>
     <use xlink:href="#DejaVuSerif-48" transform="translate(1628.53125 0)"/>
     <use xlink:href="#DejaVuSerif-22" transform="translate(1687.71875 0)"/>
    </g>
    <!-- (other diseases, +land) -->
    <g transform="translate(331.764403 19.981934) scale(0.09 -0.09)">
     <defs>
      <path id="DejaVuSerif-f" d="M 231 -622 
Q 525 -406 662 -114 
Q 800 178 800 594 
L 800 709 
L 1416 709 
Q 1391 175 1164 -208 
Q 938 -591 481 -872 
L 231 -622 
z
" transform="scale(0.015625)"/>
      <path id="DejaVuSerif-e" d="M 2931 4013 
L 2931 2259 
L 4684 2259 
L 4684 1753 
L 2931 1753 
L 2931 0 
L 2431 0 
L 2431 1753 
L 678 1753 
L 678 2259 
L 2431 2259 
L 2431 4013 
L 2931 4013 
z
" transform="scale(0.015625)"/>
     </defs>
     <use xlink:href="#DejaVuSerif-b"/>
     <use xlink:href="#DejaVuSerif-52" transform="translate(39.015625 0)"/>
     <use xlink:href="#DejaVuSerif-57" transform="translate(99.21875 0)"/>
     <use xlink:href="#DejaVuSerif-4b" transform="translate(139.40625 0)"/>
     <use xlink:href="#DejaVuSerif-48" transform="translate(203.8125 0)"/>
     <use xlink:href="#DejaVuSerif-55" transform="translate(263 0)"/>
     <use xlink:href="#DejaVuSerif-3" transform="translate(310.796875 0)"/>
     <use xlink:href="#DejaVuSerif-47" transform="translate(342.578125 0)"/>
     <use xlink:href="#DejaVuSerif-4c" transform="translate(406.59375 0)"/>
     <use xlink:href="#DejaVuSerif-56" transform="translate(438.578125 0)"/>
     <use xlink:href="#DejaVuSerif-48" transform="translate(489.890625 0)"/>
     <use xlink:href="#DejaVuSerif-44" transform="translate(549.078125 0)"/>
     <use xlink:href="#DejaVuSerif-56" transform="translate(608.703125 0)"/>
     <use xlink:href="#DejaVuSerif-48" transform="translate(660.015625 0)"/>
     <use xlink:href="#DejaVuSerif-56" transform="translate(719.203125 0)"/>
     <use xlink:href="#DejaVuSerif-f" transform="translate(770.515625 0)"/>
     <use xlink:href="#DejaVuSerif-3" transform="translate(802.296875 0)"/>
     <use xlink:href="#DejaVuSerif-e" transform="translate(834.078125 0)"/>
     <use xlink:href="#DejaVuSerif-4f" transform="translate(917.875 0)"/>
     <use xlink:href="#DejaVuSerif-44" transform="translate(949.859375 0)"/>
     <use xlink:href="#DejaVuSerif-51" transform="translate(1009.484375 0)"/>
     <use xlink:href="#DejaVuSerif-47" transform="translate(1073.890625 0)"/>
     <use xlink:href="#DejaVuSerif-c" transform="translate(1137.90625 0)"/>
    </g>
   </g>
   <g id="legend_1">
    <g id="patch_14">
     <path d="M 300.252699 37.60084 
L 314.252699 37.60084 
L 314.252699 32.70084 
L 300.252699 32.70084 
z
" style="fill: #bdbdbd"/>
    </g>
    <g id="text_24">
     <!-- control -->
     <g transform="translate(319.852699 37.60084) scale(0.07 -0.07)">
      <use xlink:href="#DejaVuSerif-46"/>
      <use xlink:href="#DejaVuSerif-52" transform="translate(56 0)"/>
      <use xlink:href="#DejaVuSerif-51" transform="translate(116.203125 0)"/>
      <use xlink:href="#DejaVuSerif-57" transform="translate(180.609375 0)"/>
      <use xlink:href="#DejaVuSerif-55" transform="translate(220.796875 0)"/>
      <use xlink:href="#DejaVuSerif-52" transform="translate(268.59375 0)"/>
      <use xlink:href="#DejaVuSerif-4f" transform="translate(328.796875 0)"/>
     </g>
    </g>
    <g id="patch_15">
     <path d="M 300.252699 48.101387 
L 314.252699 48.101387 
L 314.252699 43.201387 
L 300.252699 43.201387 
z
" style="fill: #08519c"/>
    </g>
    <g id="text_25">
     <!-- degree -->
     <g transform="translate(319.852699 48.101387) scale(0.07 -0.07)">
      <use xlink:href="#DejaVuSerif-47"/>
      <use xlink:href="#DejaVuSerif-48" transform="translate(64.015625 0)"/>
      <use xlink:href="#DejaVuSerif-4a" transform="translate(123.203125 0)"/>
      <use xlink:href="#DejaVuSerif-55" transform="translate(187.21875 0)"/>
      <use xlink:href="#DejaVuSerif-48" transform="translate(235.015625 0)"/>
      <use xlink:href="#DejaVuSerif-48" transform="translate(294.203125 0)"/>
     </g>
    </g>
   </g>
  </g>
 </g>
 <defs>
  <clipPath id="p3f25c5a223">
   <rect x="57.788828" y="25.981934" width="181.546377" height="111.45584"/>
  </clipPath>
  <clipPath id="p05eb13fcaf">
   <rect x="293.952699" y="25.981934" width="181.546377" height="111.45584"/>
  </clipPath>
 </defs>
</svg>
